<?xml version="1.0" encoding="utf-8"?>
<svg version="1.1" xmlns="http://www.w3.org/2000/svg" x="0px" y="0px" viewBox="0 0 500 500" style="enable-background:new 0 0 500 500;" width="90px" height="90px">
  <g id="BACKGROUND"/>
  <g id="OBJECTS">
    <path style="fill:#DDE9EB;" d="M207.317,445.179c34.946,7.707,74.026,8.746,103.855-11.023c23.011-15.25,37-40.442,51.84-63.72 c22.83-35.811,49.872-69.723,63.943-109.794c14.071-40.071,12.201-89.437-17.914-119.382 c-14.68-14.598-34.265-22.974-53.342-31.016c-24.534-10.342-49.067-20.685-73.601-31.027 c-24.806-10.457-50.626-21.109-77.524-20.024c-32.934,1.329-63.263,20.637-84.118,46.161 c-20.855,25.525-33.362,56.811-43.116,88.296c-10.447,33.721-9.144,82.528,12.797,110.183 c52.73,66.463,43.961,109.337,69.984,125.485C174.251,438.086,191.092,441.601,207.317,445.179z"/>
    <g>
      <g>
        <g>
          <path style="fill:#A64720;" d="M324.961,330.677c-2.849-1.041-5.116-3.77-5.225-6.802c-0.116-3.241,2.172-6.211,5.037-7.73 c5.298-2.809,13.568-0.093,13.648,6.797C338.492,329.085,329.984,332.512,324.961,330.677z"/>
          <path style="fill:#612410;" d="M334.361,316.304c2.328,1.289,4.024,3.546,4.057,6.641c0.076,6.137-8.43,9.571-13.455,7.731 c-0.776-0.284-1.505-0.687-2.161-1.198c1.187,0.257,2.406,0.335,3.651,0.166c3.889-0.517,7.429-3.404,8.463-7.186 C335.467,320.429,335.232,318.216,334.361,316.304z"/>
          <path style="fill:#CC6F43;" d="M327.45,318.332c3.04,1.792-0.24,7.219-3.545,5.609 C320.269,322.169,324.679,316.7,327.45,318.332z"/>
        </g>
        <g>
          <path style="fill:#A64720;" d="M149.902,205.87c2.415-2.21,6.157-3.023,9.114-1.618c3.161,1.502,4.866,5.172,4.894,8.671 c0.052,6.472-6.664,13.039-13.302,9.686C144.69,219.62,145.644,209.767,149.902,205.87z"/>
          <path style="fill:#612410;" d="M158.985,222.026c-2.394,1.588-5.399,2.088-8.379,0.579c-5.915-2.982-4.969-12.837-0.706-16.733 c0.659-0.601,1.407-1.099,2.223-1.473c-0.837,1.009-1.518,2.137-1.977,3.413c-1.441,3.981-0.438,8.808,2.669,11.681 C154.485,221.033,156.722,221.908,158.985,222.026z"/>
          <path style="fill:#CC6F43;" d="M160.484,214.398c-3.229,2.019-6.794-3.823-3.606-6.186 C160.384,205.612,163.426,212.558,160.484,214.398z"/>
        </g>
        <g>
          <path style="fill:#A64720;" d="M135.574,217.226c1.789-2.742,5.211-4.46,8.425-3.835c3.436,0.668,6,3.798,6.899,7.18 c1.662,6.255-3.209,14.287-10.473,12.692C133.95,231.841,132.42,222.06,135.574,217.226z"/>
          <path style="fill:#612410;" d="M148.393,230.612c-1.923,2.134-4.71,3.366-7.971,2.646c-6.471-1.416-8.008-11.196-4.849-16.031 c0.488-0.746,1.089-1.414,1.786-1.98c-0.559,1.185-0.939,2.448-1.065,3.798c-0.405,4.215,1.769,8.64,5.492,10.649 C143.787,230.77,146.172,231.062,148.393,230.612z"/>
          <path style="fill:#CC6F43;" d="M147.946,222.852c-2.625,2.759-7.532-2.012-5.033-5.094 C145.663,214.366,150.338,220.337,147.946,222.852z"/>
        </g>
        <g>
          <path style="fill:#A64720;" d="M130.999,233.031c2.139-2.479,5.759-3.725,8.861-2.677c3.316,1.12,5.44,4.564,5.879,8.036 c0.812,6.421-5.087,13.731-12.073,11.181C127.439,247.298,127.228,237.401,130.999,233.031z"/>
          <path style="fill:#612410;" d="M141.917,248.008c-2.191,1.858-5.117,2.707-8.252,1.559c-6.224-2.266-6.442-12.164-2.666-16.535 c0.583-0.674,1.268-1.256,2.034-1.724c-0.712,1.1-1.257,2.301-1.562,3.622c-0.963,4.123,0.6,8.799,4.022,11.287 C137.331,247.55,139.655,248.157,141.917,248.008z"/>
          <path style="fill:#CC6F43;" d="M142.509,240.257c-2.97,2.385-7.196-2.999-4.308-5.72 C141.378,231.543,145.215,238.084,142.509,240.257z"/>
        </g>
        <g>
          <path style="fill:#A64720;" d="M343.819,323.771c-2.976,0.586-6.33-0.572-7.994-3.108c-1.779-2.711-1.362-6.437,0.301-9.221 c3.075-5.148,11.555-7.112,15.194-1.261C354.566,315.396,349.066,322.737,343.819,323.771z"/>
          <path style="fill:#612410;" d="M344.409,306.608c2.659-0.104,5.279,0.947,6.911,3.576c3.246,5.209-2.248,12.555-7.5,13.586 c-0.811,0.159-1.643,0.192-2.469,0.096c1.148-0.396,2.231-0.96,3.208-1.75c3.058-2.458,4.588-6.762,3.513-10.532 C347.493,309.562,346.144,307.791,344.409,306.608z"/>
          <path style="fill:#CC6F43;" d="M339.549,311.925c3.529-0.043,3.537,6.298-0.124,6.634 C335.397,318.928,336.334,311.964,339.549,311.925z"/>
        </g>
        <g>
          <path style="fill:#A64720;" d="M356.959,310.284c-2.807,1.151-6.321,0.662-8.444-1.505c-2.269-2.316-2.58-6.053-1.486-9.106 c2.022-5.645,9.962-9.211,14.664-4.174C365.884,299.99,361.907,308.255,356.959,310.284z"/>
          <path style="fill:#612410;" d="M354.22,293.331c2.589-0.616,5.363-0.091,7.472,2.173c4.192,4.483,0.221,12.752-4.732,14.779 c-0.765,0.313-1.574,0.506-2.404,0.571c1.05-0.61,2.003-1.374,2.81-2.337c2.525-3.003,3.195-7.521,1.411-11.013 C357.816,295.632,356.151,294.156,354.22,293.331z"/>
          <path style="fill:#CC6F43;" d="M350.48,299.486c3.454-0.725,4.687,5.496,1.16,6.533 C347.759,307.16,347.333,300.146,350.48,299.486z"/>
        </g>
      </g>
      <g>
        <path style="fill:#FCB088;" d="M387.073,228.904c-1.173-5.063-2.092-10.067-2.58-15.248c-0.479-5.122-0.792-10.253-1.535-15.345 c-0.753-5.141-2.062-10.175-3.499-15.16c-2.307-7.966-4.701-15.903-7.086-23.849c-1.026-5.513-2.15-11.016-3.675-16.421 c-1.261-4.457-2.795-8.836-4.721-13.058c-1.319-2.883-3.949-9.725-8.337-7.731c-1.271,0.577-2.248,1.886-3.03,3.265 c-0.499-5.591-0.997-11.182-1.495-16.763c-0.205-2.307-0.098-5.19-2.043-6.823c-1.75-1.466-4.164-1.046-6.05-0.078 c-3.431,1.749-5.982,5.327-7.556,8.865c-0.205-1.75-0.41-3.499-0.616-5.258c-0.196-1.632-0.283-3.411-1.251-4.799 c-2.297-3.333-6.519-1.515-8.973,0.567c-2.717,2.307-4.555,5.522-5.689,8.865c-1.202,3.558-1.544,7.34-1.632,11.094 c-0.499-0.117-1.017-0.127-1.515-0.02c0.039-0.645,0-1.3-0.117-1.945c-0.899-4.682-6.119-5.63-9.94-3.998 c-0.235,0.098-0.45,0.215-0.674,0.332c2.922-7.037,5.718-14.124,8.367-21.279c1.779-4.828,4.271-10.703,0.704-15.355 c-1.466-1.916-3.665-2.942-6.07-2.639c-2.532,0.313-4.956,1.769-7.028,3.186c-0.997,0.684-1.945,1.437-2.844,2.229 c0.528-1.388,1.017-2.796,1.447-4.222c0.802-2.659,1.368-5.376,1.662-8.132c0.264-2.541,0.274-5.337-1.319-7.487 c-2.805-3.773-8.259-2.961-11.582-0.42c-2.15,1.642-3.734,3.861-5.376,5.992c-1.837,2.404-3.685,4.809-5.532,7.223 c-2.365,3.079-4.731,6.168-7.096,9.247c0.948-2.923,1.74-5.894,2.336-8.904c0.499-2.473,0.821-5.171-0.322-7.516 c-1.036-2.15-3.255-3.382-5.601-3.411c-5.18-0.068-9.589,4.105-12.99,7.516c-4.017,4.037-7.331,8.68-9.999,13.694 c-1.32,2.483-2.551,5.024-4.086,7.38c-1.583,2.424-3.577,4.32-5.738,6.226c-2.141,1.877-3.988,3.919-5.405,6.402 c-1.388,2.434-2.395,5.053-3.519,7.604c-4.594,10.4-12.452,18.63-19.773,27.143c-3.245,3.783-6.5,7.8-9.256,12.091 c1.72-4.633,3.929-9.07,6.735-13.176c1.74-2.541,3.714-4.887,5.864-7.096c2.297-2.356,4.711-4.613,6.735-7.213 c4.007-5.151,6.558-11.25,8.601-17.398c1.73-5.239,3.05-12.013-0.977-16.587c-2.189-2.473-5.102-1.671-7.243,0.401 c-2.248,2.18-4.311,4.486-6.715,6.52c-2.522,2.131-5.21,4.056-8.034,5.767c-2.737,1.652-5.63,3.001-8.416,4.565 c-2.766,1.535-5.337,3.362-7.497,5.689c-2.229,2.385-4.046,5.122-5.757,7.888c-8.65,14.075-16.978,28.345-25.472,42.518 c-0.274,0.469-0.244,0.928-0.029,1.28c-2.277,5.229-2.991,10.977-3.245,16.665c-0.313,7.096-0.264,14.212-0.43,21.318 c-0.176,7.301-0.469,14.603-1.144,21.875c-0.665,7.096-1.544,14.31-3.431,21.191c-1.789,6.519-5.444,13.391-12.316,15.58 c-0.538,0.166-0.831,0.547-0.938,0.977c-0.283,0.391-0.411,0.909-0.166,1.456c9.344,20.858,24.24,38.696,40.876,54.149 c2.375,2.209,4.76,4.418,7.253,6.48c2.492,2.062,5.18,3.88,8.357,4.643c0.44,0.107,0.811,0.01,1.104-0.195 c0.02-0.02,0.049-0.029,0.068-0.039c0.371-0.254,0.743-0.499,1.114-0.762c2.991-2.013,5.943-4.086,8.855-6.216 c3.724-2.707,7.389-5.503,10.986-8.386c3.167-2.531,6.558-5.552,8.67-9.149c0.039,0.225,0.068,0.45,0.098,0.674 c0.352,2.189,0.743,4.486,1.593,6.529c1.056,2.541,3.499,3.773,6.158,4.418c1.916,0.479,3.949,0.665,5.659,0.821 c10.146,0.958,20.262-1.73,29.919-4.545c19.529-5.698,38.667-12.726,57.258-20.995c17.242-7.663,34.62-16.039,49.487-27.818 c3.636-2.883,7.106-5.982,10.322-9.334c3.059-3.177,6.128-6.607,7.585-10.859C389.165,238.816,388.197,233.684,387.073,228.904z"/>
        <path style="fill:#E0875E;" d="M224.234,283.279c-6.762,11.581-17.114,22.019-26.977,27.925 c-3.216,1.926-6.578,3.587-10.048,5.004c-0.811,0.332-0.528,1.613,0.234,1.798c3.695,0.87,7.458,1.75,10.879,3.431 c0.499,0.244,0.987,0.508,1.466,0.802c3.724-2.707,7.389-5.503,10.986-8.386c3.167-2.531,6.558-5.552,8.67-9.149 c0.039,0.225,0.068,0.45,0.098,0.674c0.078-0.381,0.157-0.772,0.225-1.153c0.87-4.731,1.74-9.452,2.61-14.183 c1.271-1.877,2.463-3.812,3.558-5.806C226.541,283.142,224.874,282.183,224.234,283.279z"/>
        <g>
          <path style="fill:#E0875E;" d="M203.505,180.677c-1.325-2.995-3.051-5.981-5.656-8.043c-1.816-1.437-3.832-2.137-5.962-2.356 c1.904-8.555,4.495-16.96,7.813-25.074c0.797-1.949,1.979-3.94,2.473-5.99c0.466-1.933-0.461-3.508-1.463-5.094 c-1.905-3.015-4.405-5.797-7.973-6.732c-1.72-0.451-2.428,2.222-0.701,2.675c3.174,0.832,5.228,3.616,6.812,6.314 c0.502,0.856,0.859,1.501,0.54,2.516c-0.297,0.944-0.788,1.847-1.176,2.756c-0.754,1.763-1.477,3.54-2.17,5.328 c-2.884,7.447-5.182,15.112-6.902,22.91c-0.027,0.124-0.035,0.241-0.033,0.355c-0.43,0.029-0.863,0.071-1.298,0.127 c-8.131,1.044-16.185,3.281-23.848,6.156c-1.653,0.62-0.964,3.299,0.701,2.675c7.034-2.639,14.31-4.612,21.723-5.838 c3.406-0.564,6.914-0.862,9.768,1.435c2.309,1.859,3.769,4.582,4.947,7.246C201.821,183.67,204.219,182.289,203.505,180.677z"/>
          <path style="fill:#E0875E;" d="M254.576,167.849c-2.767-2.164-5.725-3.904-8.944-5.309c-3.03-1.322-5.56-2.776-7.403-5.604 c-0.821-1.26-1.503-2.604-2.141-3.964c-0.299-0.637-0.543-1.605-1.121-2.045c-0.604-0.46-1.648-0.477-2.378-0.648 c-3.16-0.74-6.235-1.821-9.153-3.242c-3.383-1.647-6.546-3.708-9.406-6.152c-1.344-1.148-3.31,0.797-1.955,1.955 c6.052,5.17,13.301,8.759,21.095,10.374c1.662,3.65,3.551,7.298,6.951,9.619c1.906,1.301,4.126,2.036,6.188,3.04 c2.23,1.086,4.357,2.402,6.311,3.93C254.005,170.885,255.977,168.944,254.576,167.849z"/>
          <path style="fill:#E0875E;" d="M294.501,86.55c-0.701-0.399-1.454-0.093-1.885,0.52c-3.274,4.659-5.82,9.785-7.608,15.189 c-0.559,1.689,2.117,2.388,2.675,0.701c1.714-5.179,4.202-10.063,7.338-14.525C295.451,87.824,295.106,86.894,294.501,86.55z"/>
          <path style="fill:#E0875E;" d="M283.581,106.801c-4.76,7.869-9.372,15.827-13.826,23.874 c-4.338,7.837-8.826,15.709-12.398,23.933c-1.947,4.483-3.541,9.114-4.366,13.942c-0.297,1.74,2.374,2.46,2.675,0.701 c1.457-8.532,5.314-16.305,9.308-23.897c4.212-8.008,8.578-15.935,13.093-23.776c2.59-4.499,5.232-8.969,7.919-13.411 C286.906,106.645,284.503,105.277,283.581,106.801z"/>
          <path style="fill:#E0875E;" d="M261.158,100.722c-2.236,3.237-4.493,6.461-6.703,9.716c-2.122,3.125-4.119,6.336-5.539,9.847 c-0.692,1.711-1.237,3.483-2.003,5.165c-0.77,1.692-1.721,3.293-2.686,4.879c-1.932,3.173-3.674,6.383-5.218,9.764 c-1.723,3.773-3.384,7.582-5.665,11.061c-0.975,1.487,1.431,2.851,2.405,1.365c4.043-6.166,6.293-13.295,10.128-19.589 c1.929-3.165,3.611-6.285,4.888-9.773c1.324-3.618,3.145-6.917,5.27-10.125c2.445-3.69,5.012-7.302,7.527-10.944 C264.572,100.626,262.164,99.265,261.158,100.722z"/>
          <path style="fill:#E0875E;" d="M271.187,89.597c-0.087-0.332-0.344-0.693-0.655-0.852c-0.6-0.306-1.588-0.195-1.885,0.52 c-0.392,0.945-0.845,1.863-1.362,2.746c-0.258,0.441-0.531,0.874-0.818,1.297c-0.144,0.211-0.291,0.42-0.442,0.627 c-0.073,0.1-0.143,0.219-0.229,0.308c0.287-0.296-0.01,0.009-0.069,0.084c-0.236,0.299-0.405,0.581-0.405,0.977 c0,0.339,0.151,0.745,0.405,0.977c0.5,0.457,1.475,0.608,1.955,0c1.37-1.736,2.52-3.606,3.37-5.651 C271.196,90.283,271.286,89.976,271.187,89.597z"/>
          <path style="fill:#E0875E;" d="M303.943,143.5c-5.906,17.428-11.728,34.885-17.465,52.37c-1.517,4.624-3.027,9.251-4.533,13.878 c-0.128,0.149-0.23,0.335-0.289,0.569c-3.773,15.024-16.465,25.244-26.965,35.689c-10.329,10.275-20.804,21.021-28.343,33.583 c-4.013,6.686-7.077,13.981-8.421,21.687c-0.303,1.74,2.368,2.459,2.674,0.701c2.428-13.919,10.462-25.907,19.51-36.443 c4.946-5.759,10.216-11.25,15.578-16.62c5.561-5.569,11.465-10.831,16.657-16.757c5.229-5.968,9.705-12.745,11.799-20.463 c0.076-0.111,0.143-0.233,0.191-0.379c5.69-17.5,11.464-34.973,17.322-52.417c1.646-4.902,3.299-9.801,4.959-14.698 C307.189,142.516,304.513,141.819,303.943,143.5z"/>
          <path style="fill:#E0875E;" d="M357.094,229.874c-1.678-3.641-5.807-4.942-9.476-5.511c-3.386-0.526-8.347-0.621-10.256-4.037 c-0.405-0.725-0.632-1.532-1.031-2.257c-0.1-23.005,2.36-46.1-1.265-68.964c-1.009-6.364-2.258-12.724-1.855-19.2 c0.111-1.779-2.654-1.771-2.764,0c-0.353,5.657,0.53,11.27,1.445,16.835c0.941,5.719,1.676,11.439,2.037,17.227 c0.717,11.491,0.33,23.011-0.015,34.508c-0.174,5.778-0.326,11.558-0.341,17.339c-0.021-0.008-0.039-0.019-0.06-0.027 c-2.426-0.956-4.959-1.719-7.472-2.409c-2.572-0.707-5.182-1.273-7.827-1.624c-2.159-0.287-4.325-0.424-6.42-0.994 c0.127-0.195,0.212-0.431,0.22-0.718c0.326-10.788,3.764-21.104,5.702-31.645c0.975-5.299,1.498-10.636,1.312-16.026 c-0.191-5.531-0.928-11.021-1.421-16.529c-0.554-6.187-0.8-12.456,0.453-18.576c0.355-1.735-2.316-2.451-2.674-0.701 c-2.26,11.036,0.061,22.132,0.75,33.197c0.34,5.465,0.102,10.869-0.801,16.271c-0.897,5.363-2.236,10.638-3.427,15.94 c-1.325,5.896-2.45,11.86-2.65,17.913c-2.206-0.837-4.317-1.664-6.747-1.922c-2.944-0.312-5.907-0.01-8.838,0.295 c-1.755,0.183-1.771,2.949,0,2.764c2.518-0.262,5.051-0.521,7.586-0.393c2.515,0.127,4.756,0.86,7.066,1.807 c2.283,0.936,4.519,1.466,6.968,1.744c2.539,0.288,5.041,0.645,7.532,1.229c2.46,0.577,4.882,1.301,7.278,2.101 c1.029,0.344,2.448,0.604,3.318,1.289c0.782,0.617,0.97,1.762,1.394,2.615c1.714,3.457,5.761,4.678,9.291,5.232 c3.663,0.575,8.789,0.696,10.585,4.592C355.435,232.857,357.834,231.479,357.094,229.874z"/>
          <path style="fill:#E0875E;" d="M333.799,115.2c-0.691-0.149-1.543,0.227-1.688,0.987c-0.382,1.996-0.659,4.013-0.84,6.037 c-0.064,0.723,0.681,1.412,1.382,1.382c0.803-0.034,1.313-0.611,1.382-1.382c0.042-0.477,0.09-0.953,0.144-1.429 c0.025-0.219,0.045-0.44,0.079-0.658c-0.049,0.315,0.003-0.017,0.012-0.088c0.017-0.128,0.035-0.255,0.053-0.383 c0.131-0.93,0.286-1.856,0.462-2.778C334.921,116.178,334.563,115.365,333.799,115.2z"/>
          <path style="fill:#E0875E;" d="M360.158,165.479c-1.547-0.011-3.059-0.194-4.554-0.595c-0.549-0.147-1.5-0.272-1.936-0.675 c-0.411-0.379-0.264-1.084-0.27-1.619c-0.031-2.884-0.508-5.752-1.131-8.561c-1.275-5.748-3.208-11.423-3.025-17.381 c0.054-1.782-2.71-1.778-2.764,0c-0.206,6.753,2.165,13.134,3.449,19.673c0.328,1.671,0.579,3.355,0.669,5.057 c0.073,1.391-0.197,3.02,0.614,4.245c0.786,1.186,2.403,1.589,3.694,1.936c1.711,0.46,3.486,0.672,5.256,0.685 C361.94,168.257,361.94,165.493,360.158,165.479z"/>
          <path style="fill:#E0875E;" d="M364.418,165.437c-1.781,0-1.782,2.765,0,2.765C366.199,168.202,366.2,165.437,364.418,165.437z"/>
          <path style="fill:#E0875E;" d="M356.791,189.801c-0.382-3.699-1.387-7.279-2.122-10.914c-0.893-4.42-1.395-8.908-1.569-13.413 c-0.069-1.78-2.831-1.683-2.763,0.098c0.151,3.923,0.566,7.822,1.232,11.691c0.643,3.738,1.727,7.395,2.275,11.148 c1.091,7.48-0.305,15.006-0.988,22.454c-0.391,4.265-0.554,8.548,0.039,12.802c0.244,1.747,3.009,1.665,2.763-0.098 c-1.048-7.512,0.298-15.008,0.984-22.486C356.986,197.335,357.178,193.553,356.791,189.801z"/>
          <path style="fill:#E0875E;" d="M208.291,191.217c-0.342-1.682-1.005-3.321-1.928-4.768c-0.388-0.608-1.231-0.931-1.885-0.52 c-0.607,0.382-0.936,1.233-0.52,1.885c0.393,0.616,0.727,1.264,1.014,1.936c0.274,0.704,0.494,1.427,0.644,2.168 c0.144,0.71,1.002,1.198,1.688,0.987C208.054,192.673,208.445,191.975,208.291,191.217z"/>
          <path style="fill:#E0875E;" d="M209.688,198.788c-0.302-1.757-2.974-1.04-2.675,0.701c2.519,14.641,0.12,30.048-6.561,43.304 c-1.904,3.776-4.15,7.367-6.701,10.739c-0.454,0.6-0.064,1.545,0.52,1.885c0.714,0.416,1.437,0.073,1.885-0.52 c9.287-12.278,14.395-27.574,14.595-42.953C210.807,207.535,210.435,203.132,209.688,198.788z"/>
          <path style="fill:#E0875E;" d="M214.346,232.108c-0.784-0.205-1.423,0.286-1.688,0.987c-1.776,4.709-4.391,9.116-7.659,12.942 c-0.485,0.568-0.558,1.397,0,1.955c0.497,0.497,1.467,0.571,1.955,0c3.608-4.223,6.42-8.999,8.379-14.195 C215.596,233.097,215.015,232.283,214.346,232.108z"/>
          <path style="fill:#E0875E;" d="M216.388,226.243c-0.003-0.019-0.007-0.037-0.012-0.056c-0.006-0.02-0.012-0.04-0.02-0.059 c-0.044-0.116-0.092-0.238-0.143-0.351c-0.004-0.009-0.009-0.019-0.014-0.028c-0.089-0.171-0.213-0.306-0.372-0.407 c-0.136-0.124-0.296-0.207-0.479-0.247c-0.175-0.052-0.351-0.06-0.526-0.022c-0.181,0.008-0.35,0.061-0.507,0.158 c-0.098,0.075-0.197,0.15-0.295,0.225c-0.176,0.177-0.296,0.386-0.36,0.627c-0.015,0.117-0.03,0.234-0.045,0.351 c0,0.017,0.006,0.032,0.006,0.049c-0.085,0.116-0.151,0.242-0.183,0.388c-0.053,0.175-0.06,0.351-0.023,0.526 c0.008,0.181,0.06,0.35,0.157,0.507l0.225,0.295c0.177,0.176,0.386,0.296,0.627,0.36c0.117,0.015,0.234,0.03,0.351,0.045 c0.243-0.001,0.471-0.061,0.683-0.18c0.018-0.011,0.035-0.023,0.052-0.035c0.111-0.082,0.229-0.161,0.33-0.255 c0.014-0.013,0.027-0.026,0.04-0.041c0.007-0.008,0.013-0.016,0.02-0.024c0.079-0.097,0.164-0.21,0.238-0.311 c0.023-0.032,0.044-0.066,0.061-0.103c0.066-0.14,0.131-0.285,0.173-0.435c0.041-0.144,0.051-0.317,0.065-0.453 c0.004-0.042,0.006-0.083,0.002-0.125C216.428,226.508,216.41,226.372,216.388,226.243z"/>
          <path style="fill:#E0875E;" d="M249.743,213.024c-11.727-11.724-17.85-28.47-17.03-44.982c0.233-4.693,1.061-9.326,2.441-13.817 c0.523-1.701-2.152-2.403-2.674-0.701c-5.09,16.562-2.537,35.132,6.342,49.956c2.503,4.179,5.522,8.055,8.967,11.499 C249.046,216.236,251.003,214.283,249.743,213.024z"/>
          <path style="fill:#E0875E;" d="M253.517,167.566c-3.343,0.231-6.56,1.761-8.738,4.332c-0.466,0.55-0.583,1.422,0,1.955 c0.516,0.471,1.454,0.591,1.955,0c0.462-0.546,0.971-1.047,1.53-1.494c0.011-0.009,0.069-0.053,0.106-0.082 c0.057-0.041,0.138-0.099,0.137-0.098c0.133-0.094,0.269-0.186,0.406-0.274c0.309-0.199,0.628-0.382,0.954-0.55 c0.145-0.074,0.292-0.146,0.441-0.214c0.093-0.043,0.187-0.081,0.28-0.124c0.004-0.002,0.004-0.002,0.007-0.003c0,0,0,0,0.001,0 c0.327-0.119,0.652-0.236,0.986-0.332c0.353-0.101,0.711-0.184,1.072-0.249c0.08-0.014,0.161-0.027,0.241-0.041 c0.024-0.004,0.043-0.007,0.059-0.01c0.187-0.023,0.375-0.039,0.563-0.052c0.721-0.05,1.416-0.601,1.382-1.382 C254.869,168.242,254.287,167.512,253.517,167.566z"/>
          <path style="fill:#E0875E;" d="M243.035,180.301c0.258-0.21,0.405-0.658,0.405-0.977c0-0.339-0.15-0.745-0.405-0.977 c-0.264-0.241-0.609-0.421-0.977-0.405c-0.117,0.015-0.234,0.03-0.351,0.045c-0.241,0.064-0.45,0.184-0.627,0.36 c-0.569,0.463-1.052,1.061-1.414,1.697c-0.36,0.634-0.626,1.349-0.732,2.071c-0.054,0.369-0.057,0.696,0.135,1.033 c0.17,0.298,0.51,0.581,0.852,0.655c0.343,0.074,0.727,0.057,1.033-0.135c0.294-0.185,0.602-0.491,0.655-0.852 c0.048-0.331,0.137-0.653,0.249-0.967c0.126-0.281,0.278-0.547,0.451-0.801C242.529,180.778,242.764,180.521,243.035,180.301z"/>
          <path style="fill:#E0875E;" d="M193.047,299.48c-3.106-5.318-6.854-10.257-11.137-14.683c-1.238-1.279-3.193,0.675-1.955,1.955 c4.119,4.257,7.699,8.978,10.687,14.093C191.54,302.383,193.945,301.018,193.047,299.48z"/>
          <path style="fill:#E0875E;" d="M196.511,304.865c-0.248-0.468-0.497-0.935-0.745-1.403c-0.089-0.171-0.213-0.306-0.372-0.407 c-0.136-0.124-0.296-0.207-0.479-0.247c-0.175-0.052-0.351-0.06-0.526-0.022c-0.181,0.008-0.35,0.06-0.507,0.158 c-0.098,0.075-0.197,0.15-0.295,0.225c-0.176,0.177-0.296,0.386-0.36,0.627c-0.015,0.117-0.03,0.234-0.045,0.351 c0.001,0.243,0.061,0.471,0.18,0.683c0.248,0.468,0.497,0.935,0.745,1.403c0.089,0.171,0.213,0.306,0.372,0.407 c0.136,0.124,0.296,0.207,0.48,0.247c0.175,0.052,0.351,0.06,0.526,0.022c0.181-0.008,0.35-0.06,0.507-0.158l0.295-0.225 c0.176-0.177,0.296-0.386,0.36-0.627c0.015-0.117,0.03-0.234,0.045-0.351C196.69,305.305,196.63,305.078,196.511,304.865z"/>
          <path style="fill:#E0875E;" d="M300.297,122.496c-4.991,11.532-10.545,22.817-16.658,33.796 c-2.996,5.381-6.166,10.628-8.343,16.413c-1.08,2.871-1.999,5.802-3.154,8.645c-1.105,2.72-2.61,5.25-3.727,7.963 c-1.906,4.628-2.163,11.263,3.026,13.916c1.578,0.807,2.956-1.591,1.365-2.405c-4.465-2.283-2.939-8.241-1.257-11.79 c1.201-2.533,2.493-4.992,3.516-7.608c1.035-2.649,1.903-5.359,2.905-8.02c2.062-5.48,5.125-10.461,7.966-15.556 c2.863-5.134,5.605-10.336,8.224-15.598c3.012-6.052,5.857-12.187,8.542-18.391C303.4,122.248,301.005,120.86,300.297,122.496z"/>
          <path style="fill:#E0875E;" d="M277.412,204.863c-0.078-0.156-0.156-0.313-0.234-0.469c-0.089-0.171-0.213-0.306-0.372-0.407 c-0.136-0.124-0.296-0.207-0.479-0.247c-0.175-0.052-0.351-0.06-0.526-0.023c-0.181,0.008-0.35,0.061-0.507,0.158l-0.295,0.225 c-0.176,0.177-0.296,0.386-0.36,0.627c-0.015,0.117-0.03,0.234-0.045,0.351c0.001,0.243,0.061,0.471,0.18,0.683 c0.078,0.156,0.156,0.313,0.234,0.469c0.089,0.171,0.213,0.307,0.372,0.407c0.136,0.124,0.296,0.207,0.479,0.247 c0.175,0.052,0.351,0.06,0.526,0.022c0.181-0.008,0.35-0.061,0.507-0.158c0.098-0.075,0.197-0.15,0.295-0.225 c0.176-0.177,0.296-0.386,0.36-0.627c0.015-0.117,0.03-0.234,0.045-0.351C277.591,205.302,277.531,205.075,277.412,204.863z"/>
          <path style="fill:#E0875E;" d="M266.693,184.139c-1.069-1.485-2.343-2.805-3.463-4.251c-1.196-1.545-2.265-3.187-3.24-4.879 c-0.889-1.543-3.293-0.177-2.405,1.365c1.814,3.149,4.082,5.836,6.341,8.658c2.191,2.737,2.601,6.101,2.899,9.483 c0.155,1.761,2.921,1.775,2.764,0C269.273,190.909,268.872,187.164,266.693,184.139z"/>
          <path style="fill:#E0875E;" d="M280.71,144.141c-1.201-1.851-2.833-3.402-4.775-4.458c-0.635-0.345-1.541-0.154-1.885,0.52 c-0.336,0.657-0.161,1.515,0.52,1.885c0.463,0.252,0.904,0.539,1.33,0.849c0.752,0.591,1.428,1.267,2.019,2.019 c0.132,0.181,0.264,0.362,0.386,0.55c0.393,0.605,1.228,0.933,1.885,0.52C280.793,145.647,281.131,144.79,280.71,144.141z"/>
          <path style="fill:#E0875E;" d="M283.242,146.734c-1.781,0-1.782,2.764,0,2.764C285.023,149.498,285.024,146.734,283.242,146.734 z"/>
          <path style="fill:#E0875E;" d="M279.891,151.283c-0.102-0.331-0.32-0.711-0.655-0.852c-0.853-0.357-1.652-0.824-2.396-1.373 c-0.55-0.439-1.064-0.921-1.526-1.453c-0.475-0.547-1.475-0.525-1.955,0c-0.535,0.585-0.509,1.369,0,1.955 c1.221,1.407,2.792,2.556,4.511,3.276c0.346,0.145,0.656,0.234,1.033,0.135c0.332-0.087,0.693-0.344,0.852-0.655 C279.916,152.003,279.997,151.629,279.891,151.283z"/>
          <g>
            <path style="fill:#E0875E;" d="M261.656,133.084c-0.555-0.242-1.091-0.526-1.6-0.854c-0.13-0.084-0.259-0.17-0.385-0.26 c-0.052-0.036-0.103-0.073-0.154-0.111c-0.223-0.188-0.454-0.367-0.67-0.564c-0.434-0.397-0.837-0.827-1.204-1.287 c0.005,0.009,0.006,0.009,0.012,0.02c-0.034-0.06-0.085-0.114-0.125-0.17c-0.091-0.126-0.178-0.253-0.264-0.383 c-0.171-0.259-0.329-0.525-0.477-0.797c-0.347-0.634-1.26-0.913-1.885-0.52c-0.643,0.404-0.891,1.206-0.52,1.885 c1.303,2.38,3.416,4.358,5.907,5.445c0.341,0.149,0.661,0.232,1.033,0.135c0.332-0.087,0.693-0.344,0.852-0.655 C262.487,134.36,262.366,133.394,261.656,133.084z"/>
            <path style="fill:#E0875E;" d="M257.636,130.001c0.002,0.003,0.005,0.005,0.007,0.008 C257.48,129.724,257.564,129.911,257.636,130.001z"/>
          </g>
          <path style="fill:#E0875E;" d="M263.811,126.824l-0.225-0.295c-0.177-0.176-0.386-0.296-0.627-0.36 c-0.234-0.08-0.468-0.159-0.702-0.239c-0.175-0.052-0.351-0.06-0.526-0.022c-0.181,0.008-0.35,0.061-0.507,0.157 c-0.171,0.089-0.306,0.213-0.407,0.372c-0.124,0.136-0.207,0.296-0.247,0.479c-0.015,0.117-0.03,0.234-0.045,0.351 c0.001,0.243,0.061,0.471,0.18,0.683c0.075,0.098,0.15,0.196,0.225,0.295c0.177,0.176,0.386,0.296,0.627,0.36 c0.234,0.08,0.468,0.159,0.702,0.239c0.175,0.053,0.351,0.06,0.526,0.023c0.181-0.008,0.35-0.06,0.507-0.157 c0.171-0.089,0.306-0.213,0.407-0.372c0.124-0.136,0.207-0.296,0.247-0.479c0.015-0.117,0.03-0.234,0.045-0.351 C263.99,127.263,263.93,127.036,263.811,126.824z"/>
          <path style="fill:#E0875E;" d="M283.043,101.943c-0.271-0.248-0.561-0.348-0.915-0.395c0.024,0.003,0.049,0.006,0.073,0.009 c-0.879-0.116-1.737-0.344-2.563-0.663c-0.292-0.126-0.582-0.255-0.863-0.405c-0.638-0.339-1.538-0.158-1.885,0.52 c-0.333,0.652-0.164,1.522,0.52,1.885c1.461,0.776,3.018,1.225,4.656,1.408c0.329,0.037,0.755-0.182,0.978-0.405 c0.24-0.24,0.42-0.632,0.405-0.977C283.432,102.563,283.315,102.191,283.043,101.943z"/>
          <path style="fill:#E0875E;" d="M260.366,101.704c-3.773-0.499-7.114-2.218-9.658-4.97c-0.507-0.549-1.441-0.513-1.955,0 c-0.547,0.547-0.509,1.404,0,1.955c2.836,3.069,6.764,5.142,10.911,5.69c0.739,0.098,1.482-0.201,1.688-0.987 C261.523,102.74,261.11,101.803,260.366,101.704z"/>
          <path style="fill:#E0875E;" d="M242.385,115.888c-0.064-0.241-0.184-0.45-0.36-0.627c-0.892-1.064-2.12-1.823-3.436-2.241 c-0.321-0.102-0.747-0.028-1.033,0.135c-0.298,0.17-0.581,0.51-0.655,0.852c-0.074,0.343-0.057,0.727,0.135,1.033 c0.204,0.324,0.484,0.538,0.852,0.655c0.087,0.028,0.171,0.061,0.257,0.093c0.395,0.173,0.769,0.389,1.12,0.64 c0.291,0.24,0.564,0.499,0.807,0.788c0.216,0.257,0.653,0.405,0.977,0.405c0.339,0,0.745-0.15,0.977-0.405 c0.242-0.264,0.421-0.609,0.405-0.977C242.415,116.122,242.4,116.005,242.385,115.888z"/>
          <path style="fill:#E0875E;" d="M240.425,121.094c-0.088-0.033-0.175-0.068-0.263-0.101c-0.001,0-0.001,0-0.002-0.001 c-0.16-0.071-0.322-0.138-0.481-0.211c-0.336-0.154-0.667-0.318-0.993-0.493c-0.634-0.341-1.247-0.722-1.833-1.14 c-0.063-0.045-0.127-0.091-0.189-0.137c-0.017-0.013-0.101-0.075-0.148-0.111c-0.03-0.023-0.059-0.047-0.068-0.053 c-0.076-0.06-0.152-0.121-0.227-0.183c-0.271-0.222-0.535-0.452-0.792-0.69c-0.542-0.503-1.049-1.042-1.524-1.61 c-0.465-0.557-1.482-0.517-1.955,0c-0.543,0.594-0.498,1.359,0,1.955c2.065,2.474,4.77,4.311,7.774,5.45 c0.678,0.257,1.542-0.31,1.688-0.987C241.583,121.987,241.15,121.37,240.425,121.094z"/>
          <path style="fill:#E0875E;" d="M285.735,174.039c-0.064-0.241-0.184-0.45-0.36-0.627c-0.389-0.315-0.778-0.629-1.167-0.944 c-0.13-0.14-0.283-0.237-0.461-0.292c-0.16-0.082-0.333-0.119-0.517-0.113c-0.184-0.007-0.356,0.031-0.517,0.113 c-0.178,0.055-0.331,0.153-0.461,0.292l-0.225,0.295c-0.119,0.212-0.179,0.44-0.18,0.683c0.015,0.117,0.03,0.234,0.045,0.351 c0.064,0.241,0.184,0.45,0.36,0.627c0.389,0.315,0.778,0.629,1.167,0.944c0.129,0.14,0.283,0.237,0.461,0.292 c0.161,0.082,0.333,0.119,0.517,0.112c0.184,0.007,0.356-0.031,0.517-0.112c0.178-0.055,0.331-0.153,0.461-0.292 c0.075-0.098,0.15-0.196,0.225-0.295c0.119-0.212,0.179-0.44,0.18-0.683C285.765,174.273,285.75,174.156,285.735,174.039z"/>
          <path style="fill:#E0875E;" d="M296.35,151.947c-0.064-0.241-0.184-0.45-0.36-0.627c-0.27-0.351-0.6-0.614-0.953-0.879 c-0.351-0.264-0.734-0.428-1.14-0.591c-0.175-0.053-0.351-0.06-0.526-0.023c-0.181,0.008-0.35,0.061-0.507,0.157 c-0.171,0.089-0.306,0.213-0.407,0.372c-0.124,0.136-0.207,0.296-0.247,0.479c-0.074,0.343-0.058,0.727,0.135,1.033l0.225,0.295 c0.167,0.166,0.365,0.278,0.589,0.344c-0.091-0.037-0.182-0.074-0.272-0.111c0.21,0.086,0.407,0.199,0.596,0.323 c0.201,0.167,0.393,0.346,0.553,0.553c0.129,0.14,0.283,0.237,0.461,0.292c0.161,0.082,0.333,0.119,0.517,0.113 c0.184,0.007,0.356-0.031,0.517-0.113c0.178-0.055,0.331-0.153,0.461-0.292l0.225-0.295c0.119-0.212,0.179-0.44,0.18-0.683 C296.38,152.18,296.365,152.063,296.35,151.947z"/>
          <path style="fill:#E0875E;" d="M344.93,180.681c-0.198-0.314-0.485-0.561-0.852-0.655c-0.936-0.239-1.873-0.479-2.809-0.718 c-0.338-0.086-0.729-0.038-1.033,0.135c-0.298,0.169-0.581,0.51-0.655,0.852c-0.074,0.343-0.057,0.727,0.135,1.033 c0.198,0.314,0.485,0.561,0.852,0.655c0.936,0.24,1.873,0.479,2.809,0.718c0.338,0.086,0.729,0.038,1.033-0.135 c0.298-0.17,0.581-0.51,0.655-0.852C345.14,181.371,345.123,180.987,344.93,180.681z"/>
          <path style="fill:#E0875E;" d="M349.365,186.563c-0.394-0.627-1.218-0.911-1.885-0.52c-0.232,0.136-0.469,0.264-0.712,0.378 c-0.108,0.051-0.218,0.107-0.331,0.147c-0.073,0.025-0.158,0.054-0.183,0.062c-0.474,0.164-0.963,0.287-1.458,0.368 c-0.043,0.007-0.086,0.013-0.129,0.02c-0.125,0.009-0.25,0.024-0.375,0.032c-0.25,0.016-0.501,0.021-0.752,0.015 c-0.238-0.005-0.52,0.011-0.751-0.05c0.336,0.088-0.112-0.019-0.181-0.031c-0.141-0.025-0.281-0.055-0.422-0.086 c-0.705-0.158-1.526,0.239-1.688,0.987c-0.154,0.71,0.232,1.519,0.987,1.688c2.496,0.559,5.15,0.173,7.361-1.125 C349.468,188.082,349.766,187.201,349.365,186.563z"/>
          <path style="fill:#E0875E;" d="M342.958,148.913c-0.106-0.344-0.321-0.688-0.655-0.852c-0.94-0.463-1.881-0.926-2.821-1.389 c-0.324-0.16-0.677-0.228-1.033-0.135c-0.332,0.087-0.693,0.344-0.852,0.655c-0.16,0.313-0.242,0.688-0.135,1.033 c0.106,0.344,0.321,0.688,0.655,0.852c0.94,0.463,1.881,0.926,2.822,1.389c0.324,0.16,0.677,0.228,1.033,0.135 c0.332-0.087,0.693-0.344,0.852-0.655C342.983,149.633,343.065,149.259,342.958,148.913z"/>
          <path style="fill:#E0875E;" d="M326.309,142.362c-0.045-0.111-0.09-0.221-0.135-0.332c-0.127-0.22-0.3-0.393-0.52-0.52 l-0.938-0.469c-0.157-0.097-0.327-0.149-0.507-0.157c-0.175-0.038-0.351-0.03-0.526,0.022c-0.184,0.041-0.344,0.123-0.479,0.247 c-0.159,0.101-0.283,0.237-0.372,0.407c-0.045,0.111-0.09,0.221-0.135,0.332c-0.06,0.234-0.06,0.467,0,0.701 c0.045,0.111,0.09,0.221,0.135,0.332c0.127,0.22,0.3,0.393,0.52,0.52l0.938,0.469c0.157,0.097,0.327,0.15,0.507,0.158 c0.175,0.038,0.351,0.03,0.526-0.023c0.184-0.041,0.343-0.123,0.479-0.247c0.159-0.101,0.283-0.236,0.372-0.407 c0.045-0.111,0.09-0.221,0.135-0.332C326.369,142.83,326.369,142.596,326.309,142.362z"/>
          <path style="fill:#E0875E;" d="M218.051,92.575c-1.732,1.83-3.735,3.351-5.757,4.844c-1.804,1.332-3.804,2.868-6.146,2.888 c-1.781,0.015-1.783,2.78,0,2.765c2.795-0.024,5.158-1.516,7.336-3.118c2.277-1.676,4.572-3.364,6.522-5.424 C221.227,93.24,219.277,91.28,218.051,92.575z"/>
          <path style="fill:#E0875E;" d="M312.84,161.502c-0.112-0.363-0.328-0.65-0.655-0.852c-0.932-0.575-2.048-0.877-3.142-0.873 c-0.355,0.001-0.726,0.153-0.977,0.405c-0.24,0.24-0.42,0.633-0.405,0.977c0.015,0.357,0.133,0.729,0.405,0.977 c0.27,0.247,0.604,0.406,0.977,0.405c0.144-0.001,0.287,0.013,0.43,0.025c0.271,0.046,0.537,0.115,0.796,0.207 c0.188,0.085,0.375,0.172,0.551,0.281c0.289,0.178,0.709,0.22,1.033,0.135c0.332-0.087,0.693-0.344,0.852-0.655 C312.865,162.223,312.947,161.848,312.84,161.502z"/>
          <path style="fill:#E0875E;" d="M305.149,178.617c-1.487-0.464-3.064-0.687-4.621-0.667c-0.724,0.009-1.414,0.63-1.382,1.382 c0.032,0.74,0.61,1.392,1.382,1.382c0.579-0.007,1.155,0.026,1.73,0.09c0.742,0.105,1.474,0.264,2.189,0.487 c0.691,0.215,1.535-0.28,1.688-0.987C306.3,179.546,305.889,178.847,305.149,178.617z"/>
          <path style="fill:#E0875E;" d="M311.266,181.01c-0.045-0.111-0.09-0.221-0.135-0.332c-0.127-0.22-0.3-0.393-0.52-0.52 c-0.149-0.075-0.298-0.15-0.448-0.225c-0.157-0.097-0.327-0.15-0.507-0.158c-0.175-0.038-0.351-0.03-0.526,0.023 c-0.184,0.041-0.343,0.123-0.479,0.247c-0.159,0.101-0.283,0.237-0.372,0.407c-0.045,0.111-0.09,0.221-0.135,0.332 c-0.06,0.234-0.06,0.468,0,0.701c0.045,0.111,0.09,0.221,0.135,0.332c0.127,0.22,0.3,0.393,0.52,0.52 c0.149,0.075,0.298,0.15,0.448,0.225c0.157,0.097,0.327,0.15,0.507,0.157c0.175,0.038,0.351,0.03,0.526-0.022 c0.184-0.041,0.343-0.123,0.479-0.247c0.159-0.101,0.283-0.237,0.372-0.407c0.045-0.111,0.09-0.221,0.135-0.332 C311.326,181.478,311.326,181.244,311.266,181.01z"/>
          <path style="fill:#E0875E;" d="M191.289,260.447c-0.041-0.184-0.123-0.344-0.247-0.479c-0.101-0.159-0.237-0.283-0.407-0.372 c-0.313-0.16-0.688-0.242-1.033-0.135c-0.353,0.109-0.669,0.324-0.852,0.655c-0.35,0.633-0.7,1.266-1.05,1.9 c-0.17,0.307-0.224,0.693-0.135,1.033c0.041,0.184,0.123,0.343,0.247,0.479c0.101,0.159,0.237,0.283,0.407,0.372 c0.313,0.16,0.688,0.242,1.033,0.135c0.354-0.109,0.669-0.324,0.852-0.655c0.35-0.633,0.7-1.266,1.05-1.9 C191.324,261.173,191.378,260.787,191.289,260.447z"/>
        </g>
        <path style="fill:#E0875E;" d="M358.987,232.335c-2.497,0.725-4.91,1.761-7.114,3.143c-2.279,1.428-4.231,3.224-6.177,5.064 c-1.855,1.754-3.801,3.551-6.252,4.417c-0.876,0.31-1.775,0.507-2.685,0.641c-1.026-0.447-2.062-0.871-3.117-1.251 c-7.779-2.805-16.013-3.452-24.188-2.406c-4.474,0.573-8.877,1.565-13.235,2.713c-2.197,0.578-4.388,1.183-6.571,1.812 c-1.553,0.447-3.192,1.12-4.176,2.467c-0.455,0.623-0.711,1.36-0.674,2.138c0.048,1.003,0.655,1.725,1.053,2.597 c0.723,1.585,0.328,3.457-0.463,4.935c-1.851,3.46-5.846,4.95-9.207,6.521c-8.222,3.841-15.578,9.45-21.472,16.35 c-0.046,0.053-0.078,0.109-0.115,0.164c-0.089,0.042-0.179,0.08-0.266,0.126c-1.574,0.837-0.204,3.239,1.365,2.405 c1.346-0.716,2.874-0.618,4.35-0.536c1.758,0.098,3.51,0.155,5.27,0.109c3.445-0.091,6.873-0.477,10.284-0.953 c6.482-0.905,12.929-2.095,19.319-3.512c12.823-2.843,25.429-6.666,37.671-11.427c5.141-1.999,10.218-4.159,15.223-6.475 c1.422,0.944,2.845,1.887,4.289,2.798c0.689,0.434,1.453,0.054,1.885-0.52c2.961-3.931,4.226-8.771,5.061-13.544 c0.978-5.585,1.75-11.214,2.555-16.826C361.836,231.634,359.449,230.902,358.987,232.335z"/>
        <path style="fill:#E0875E;" d="M309.001,255.379c0.008-0.149-0.01-0.286-0.009-0.431c0.002-0.279,0.007-0.56-0.016-0.827 c-0.017-0.193-0.055-0.373-0.084-0.56c-0.033-0.213-0.062-0.428-0.111-0.633c-0.046-0.192-0.108-0.374-0.167-0.559 c-0.058-0.183-0.115-0.366-0.185-0.542c-0.074-0.184-0.159-0.359-0.245-0.535c-0.079-0.161-0.16-0.321-0.25-0.475 c-0.099-0.171-0.205-0.335-0.316-0.497c-0.099-0.145-0.202-0.285-0.31-0.423c-0.12-0.153-0.243-0.303-0.373-0.447 c-0.12-0.132-0.246-0.258-0.374-0.383c-0.135-0.132-0.269-0.263-0.413-0.385c-0.147-0.126-0.302-0.242-0.457-0.358 c-0.139-0.104-0.274-0.212-0.419-0.309c-0.028-0.019-0.054-0.042-0.082-0.061c0.002,0.005,0.003,0.009,0.005,0.014 c-2.899-1.895-6.911-2.3-10.097-0.829c-1.21,0.559-2.341,1.36-3.283,2.332c-1.546-2.583-4.215-4.59-7.179-5.15 c-3.467-0.655-7.465,0.328-9.634,3.184c-0.075,0.098-0.127,0.209-0.197,0.311c-0.04-0.507-0.131-1.008-0.26-1.501 c-0.006-0.021-0.011-0.043-0.017-0.064c-0.085-0.315-0.187-0.626-0.305-0.932c-0.005-0.014-0.008-0.028-0.014-0.041 c0,0.001-0.001,0.003-0.001,0.004c-1.262-3.223-4.298-5.876-7.743-6.526c-3.326-0.628-7.142,0.298-9.282,2.976 c0-0.092-0.008-0.184-0.011-0.276c-0.008-0.178-0.023-0.353-0.044-0.529c-0.018-0.157-0.042-0.313-0.07-0.468 c-0.032-0.173-0.067-0.344-0.111-0.513c-0.04-0.156-0.088-0.309-0.138-0.463c-0.053-0.162-0.105-0.323-0.168-0.481 c-0.064-0.162-0.14-0.319-0.215-0.478c-0.067-0.142-0.13-0.284-0.205-0.423c-0.015-0.027-0.025-0.056-0.04-0.083 c-0.001,0.004-0.002,0.009-0.002,0.013c-1.52-2.731-4.554-4.738-7.716-4.9c-1.656-0.085-3.381,0.269-4.873,1.023 c0.015-0.066,0.021-0.134,0.034-0.2c0.032-0.155,0.058-0.309,0.079-0.465c0.024-0.174,0.044-0.348,0.056-0.523 c0.011-0.161,0.013-0.321,0.014-0.482c0.001-0.17,0.001-0.339-0.009-0.509c-0.01-0.174-0.033-0.348-0.054-0.522 c-0.02-0.155-0.034-0.311-0.063-0.465c-0.005-0.03-0.007-0.061-0.012-0.091c-0.002,0.004-0.004,0.008-0.006,0.012 c-0.589-3.069-2.843-5.925-5.795-7.068c-1.805-0.699-3.889-0.879-5.769-0.403c0.082-0.084,0.159-0.17,0.236-0.257 c0.131-0.147,0.255-0.298,0.374-0.453c0.107-0.139,0.208-0.279,0.305-0.424c0.109-0.162,0.213-0.325,0.31-0.494 c0.089-0.155,0.169-0.313,0.248-0.473c0.083-0.169,0.167-0.337,0.239-0.512c0.074-0.178,0.136-0.361,0.199-0.544 c0.056-0.164,0.117-0.326,0.164-0.494c0.009-0.033,0.023-0.064,0.032-0.097c-0.004,0.003-0.008,0.006-0.012,0.009 c0.906-3.34,0.051-7.278-2.33-9.85c-1.9-2.052-4.702-3.46-7.488-3.388c0.029-0.037,0.053-0.077,0.082-0.114 c0.107-0.139,0.208-0.28,0.306-0.425c0.108-0.161,0.213-0.324,0.309-0.493c0.089-0.155,0.169-0.313,0.248-0.473 c0.083-0.169,0.167-0.337,0.239-0.511c0.074-0.178,0.136-0.361,0.199-0.544c0.056-0.164,0.117-0.326,0.164-0.494 c0.009-0.033,0.023-0.064,0.032-0.097c-0.004,0.003-0.008,0.006-0.012,0.009c0.906-3.34,0.051-7.278-2.33-9.85 c-2.039-2.202-5.118-3.661-8.099-3.347c0.125-0.141,0.242-0.286,0.356-0.435c0.107-0.139,0.209-0.28,0.306-0.425 c0.108-0.161,0.212-0.324,0.309-0.493c0.089-0.155,0.169-0.314,0.249-0.475c0.083-0.169,0.166-0.336,0.238-0.51 c0.075-0.179,0.137-0.363,0.2-0.547c0.056-0.164,0.116-0.325,0.163-0.492c0.009-0.033,0.023-0.064,0.032-0.097 c-0.004,0.003-0.008,0.005-0.012,0.009c0.906-3.34,0.052-7.278-2.33-9.85c-1.253-1.353-2.899-2.421-4.673-2.974 c0.03-0.118,0.05-0.238,0.075-0.357c0.036-0.175,0.063-0.35,0.088-0.526c0.026-0.185,0.053-0.369,0.067-0.556 c0.015-0.191,0.016-0.382,0.018-0.574c0.002-0.171,0.009-0.341,0.001-0.512c-0.001-0.034,0.002-0.067,0-0.101 c-0.003,0.004-0.006,0.008-0.009,0.012c-0.192-3.396-2.273-6.699-5.392-8.19c-3.061-1.463-7.128-1.533-10.054,0.593 c-1.997,1.451-3.17,3.77-3.397,6.103c-0.002-0.005-0.004-0.009-0.006-0.014c-0.002,0.022,0.001,0.044-0.002,0.066 c-0.029,0.314-0.03,0.626-0.023,0.938c0.002,0.114-0.008,0.229-0.001,0.342c0.026,0.414,0.079,0.824,0.169,1.223 c0.048,0.212,0.124,0.421,0.192,0.632c1.027,3.165,4.325,6.079,7.983,6.973c-0.075,0.323-0.143,0.648-0.178,0.977 c-0.023,0.215-0.034,0.434-0.038,0.654c-0.099,4.48,3.535,9.99,8.174,11.088c0.841,0.2,1.716,0.249,2.607,0.127 c-0.601,0.681-1.101,1.45-1.467,2.283c0-0.005-0.001-0.01-0.001-0.015c-0.009,0.02-0.013,0.042-0.022,0.063 c-0.126,0.291-0.226,0.59-0.319,0.892c-0.035,0.111-0.081,0.219-0.111,0.331c-0.108,0.408-0.189,0.822-0.234,1.239 c-0.023,0.215-0.034,0.434-0.038,0.654c-0.1,4.513,3.589,10.068,8.277,11.109c0.605,0.135,1.227,0.192,1.86,0.164 c-0.47,0.593-0.855,1.252-1.16,1.944c0-0.005-0.001-0.01-0.001-0.015c-0.009,0.021-0.014,0.042-0.023,0.063 c-0.126,0.291-0.226,0.591-0.32,0.893c-0.034,0.111-0.081,0.218-0.11,0.33c-0.108,0.408-0.19,0.822-0.235,1.24 c-0.023,0.215-0.034,0.434-0.038,0.654c-0.099,4.48,3.534,9.99,8.174,11.088c1.112,0.264,2.281,0.276,3.472-0.041 c0.093-0.025,0.173-0.064,0.264-0.091c-1.294,1.432-1.918,3.385-1.84,5.311c-0.002-0.004-0.005-0.008-0.007-0.012 c0.001,0.02,0.006,0.04,0.007,0.06c0.013,0.286,0.051,0.569,0.095,0.851c0.016,0.104,0.021,0.209,0.041,0.312 c0.074,0.374,0.172,0.742,0.301,1.099c0.087,0.241,0.201,0.479,0.317,0.715c1.77,3.589,6.782,6.509,10.912,5.594 c0.466-0.103,0.914-0.274,1.351-0.479c-0.296,1.416-0.154,2.918,0.356,4.28c-0.003-0.003-0.007-0.006-0.01-0.009 c0.007,0.019,0.018,0.036,0.025,0.055c0.102,0.268,0.226,0.524,0.356,0.778c0.048,0.094,0.085,0.192,0.137,0.283 c0.187,0.332,0.396,0.651,0.63,0.949c0.138,0.176,0.3,0.341,0.459,0.507c2.779,2.906,8.515,4.151,12.181,1.971 c0.626-0.372,1.186-0.849,1.666-1.428c-0.025,0.757,0.057,1.517,0.225,2.255c-0.003-0.004-0.007-0.008-0.01-0.012 c0.005,0.022,0.014,0.042,0.019,0.064c0.072,0.309,0.17,0.61,0.275,0.909c0.038,0.11,0.065,0.223,0.108,0.331 c0.156,0.393,0.337,0.774,0.549,1.137c0.134,0.229,0.296,0.448,0.457,0.668c2.633,3.583,8.716,5.783,13.052,3.947 c1.063-0.449,2.02-1.141,2.795-2.113c0.166-0.208,0.316-0.419,0.458-0.631c0.029,0.509,0.091,1.014,0.203,1.51 c-0.003-0.004-0.007-0.008-0.01-0.012c0.005,0.022,0.015,0.043,0.02,0.065c0.074,0.318,0.175,0.627,0.282,0.934 c0.039,0.111,0.066,0.227,0.11,0.337c0.16,0.402,0.345,0.794,0.563,1.165c0.131,0.224,0.29,0.438,0.447,0.653 c2.697,3.705,8.99,5.977,13.448,4.048c0.858-0.371,1.636-0.916,2.319-1.618c0.37,0.505,0.787,0.973,1.253,1.389 c-0.005-0.001-0.01-0.002-0.015-0.004c0.017,0.015,0.036,0.026,0.053,0.04c0.238,0.21,0.493,0.398,0.752,0.581 c0.095,0.067,0.182,0.144,0.279,0.207c0.355,0.229,0.724,0.435,1.107,0.607c0.228,0.102,0.473,0.181,0.716,0.262 c4.225,1.416,10.49-0.321,12.963-4.347C308.556,257.739,308.934,256.62,309.001,255.379z"/>
        <g>
          <g>
            <path style="fill:#A64720;" d="M193.11,170.944c-1.643-2.662-1.677-6.477,0.264-9.248c2.075-2.962,5.944-4.22,9.314-3.833 c6.233,0.717,11.206,8.17,6.658,14.367C205.291,177.755,196.007,175.638,193.11,170.944z"/>
            <path style="fill:#612410;" d="M210.457,163.838c1.049,2.567,0.93,5.612-1.115,8.393c-4.048,5.523-13.334,3.412-16.229-1.287 c-0.447-0.726-0.776-1.528-0.973-2.383c0.803,0.951,1.752,1.762,2.887,2.369c3.541,1.905,8.382,1.481,11.764-1.264 C208.603,168.191,209.892,166.073,210.457,163.838z"/>
            <path style="fill:#CC6F43;" d="M203.422,161.443c1.297,3.448-5.032,6.296-6.668,2.848 C194.954,160.498,202.24,158.301,203.422,161.443z"/>
          </g>
          <g>
            <path style="fill:#A64720;" d="M205.278,177.065c0.343-3.189,2.602-6.232,5.743-7.148c3.357-0.98,7.061,0.569,9.398,3.094 c4.322,4.668,3.648,13.842-3.534,15.756C210.483,190.472,204.674,182.687,205.278,177.065z"/>
            <path style="fill:#612410;" d="M222.761,182.852c-0.738,2.723-2.654,5.055-5.88,5.912c-6.396,1.71-12.211-6.072-11.603-11.697 c0.094-0.869,0.324-1.72,0.686-2.527c0.042,1.281,0.279,2.548,0.781,3.776c1.558,3.838,5.503,6.688,9.726,6.739 C218.74,185.079,220.991,184.25,222.761,182.852z"/>
            <path style="fill:#CC6F43;" d="M218.833,176.327c-1.078,3.584-7.609,1.674-6.79-2.132 C212.943,170.008,219.815,173.062,218.833,176.327z"/>
          </g>
          <g>
            <path style="fill:#A64720;" d="M213.858,193.727c0.343-3.189,2.602-6.232,5.743-7.148c3.357-0.98,7.061,0.569,9.398,3.094 c4.322,4.668,3.648,13.842-3.534,15.756C219.063,207.134,213.253,199.349,213.858,193.727z"/>
            <path style="fill:#612410;" d="M231.341,199.514c-0.738,2.723-2.654,5.055-5.88,5.912c-6.395,1.71-12.211-6.072-11.602-11.697 c0.094-0.868,0.324-1.72,0.686-2.527c0.042,1.281,0.279,2.548,0.781,3.776c1.558,3.838,5.503,6.688,9.726,6.739 C227.319,201.741,229.571,200.912,231.341,199.514z"/>
            <path style="fill:#CC6F43;" d="M227.412,192.989c-1.078,3.584-7.609,1.674-6.79-2.132 C221.523,186.669,228.394,189.724,227.412,192.989z"/>
          </g>
          <g>
            <path style="fill:#A64720;" d="M221.835,209.829c0.343-3.189,2.602-6.232,5.743-7.148c3.357-0.98,7.061,0.569,9.398,3.094 c4.322,4.668,3.648,13.842-3.534,15.756C227.04,223.236,221.231,215.452,221.835,209.829z"/>
            <path style="fill:#612410;" d="M239.318,215.617c-0.738,2.723-2.654,5.055-5.88,5.912c-6.396,1.71-12.211-6.072-11.602-11.697 c0.094-0.868,0.324-1.72,0.686-2.527c0.042,1.281,0.279,2.548,0.781,3.776c1.558,3.838,5.503,6.688,9.726,6.739 C235.297,217.844,237.548,217.014,239.318,215.617z"/>
            <path style="fill:#CC6F43;" d="M235.39,209.092c-1.078,3.584-7.609,1.674-6.79-2.132 C229.5,202.772,236.372,205.826,235.39,209.092z"/>
          </g>
          <g>
            <path style="fill:#A64720;" d="M230.756,227.977c-0.986-2.723-0.359-6.088,1.826-8.076c2.335-2.126,5.954-2.337,8.851-1.215 c5.357,2.074,8.446,9.785,3.378,14.184C240.293,236.792,232.494,232.778,230.756,227.977z"/>
            <path style="fill:#612410;" d="M247.235,225.743c0.48,2.502-0.15,5.154-2.428,7.127c-4.511,3.922-12.314-0.086-14.05-4.891 c-0.268-0.742-0.419-1.524-0.445-2.323c0.542,1.023,1.237,1.957,2.13,2.754c2.785,2.496,7.115,3.245,10.563,1.613 C244.855,229.144,246.353,227.579,247.235,225.743z"/>
            <path style="fill:#CC6F43;" d="M241.461,222.006c0.546,3.335-5.51,4.374-6.355,0.962 C234.178,219.213,240.963,218.967,241.461,222.006z"/>
          </g>
          <g>
            <path style="fill:#A64720;" d="M245.802,238.101c-1.788-2.278-2.246-5.669-0.793-8.242c1.553-2.75,4.924-4.083,8.026-3.924 c5.738,0.294,11.084,6.65,7.648,12.415C257.619,243.488,248.956,242.117,245.802,238.101z"/>
            <path style="fill:#612410;" d="M260.754,230.822c1.239,2.226,1.471,4.942-0.075,7.529c-3.057,5.137-11.722,3.772-14.875-0.249 c-0.486-0.621-0.875-1.317-1.149-2.067c0.835,0.802,1.787,1.471,2.885,1.949c3.427,1.499,7.774,0.855,10.537-1.774 C259.558,234.797,260.491,232.841,260.754,230.822z"/>
            <path style="fill:#CC6F43;" d="M254.101,229.079c1.562,2.996-3.865,5.879-5.734,2.902 C246.309,228.706,252.677,226.349,254.101,229.079z"/>
          </g>
          <g>
            <path style="fill:#A64720;" d="M260.604,244.243c-1.623-2.769-1.617-6.562,0.363-9.17c2.117-2.787,6.018-3.746,9.402-3.107 c6.257,1.182,11.176,8.963,6.539,14.778C272.774,251.929,263.466,249.125,260.604,244.243z"/>
            <path style="fill:#612410;" d="M278.114,238.488c1.027,2.63,0.875,5.647-1.21,8.257c-4.127,5.183-13.438,2.387-16.298-2.501 c-0.441-0.755-0.763-1.577-0.952-2.441c0.797,1.005,1.742,1.883,2.876,2.572c3.538,2.159,8.408,2.103,11.837-0.37 C276.205,242.674,277.522,240.667,278.114,238.488z"/>
            <path style="fill:#CC6F43;" d="M271.068,235.579c1.267,3.524-5.124,5.877-6.732,2.328 C262.568,234.002,269.914,232.367,271.068,235.579z"/>
          </g>
          <g>
            <path style="fill:#A64720;" d="M278.4,249.787c-1.663-2.838-1.657-6.724,0.372-9.396c2.169-2.856,6.167-3.839,9.634-3.184 c6.411,1.211,11.452,9.184,6.7,15.143C290.869,257.662,281.331,254.79,278.4,249.787z"/>
            <path style="fill:#612410;" d="M296.341,243.891c1.053,2.695,0.897,5.786-1.24,8.46c-4.228,5.311-13.769,2.446-16.7-2.562 c-0.452-0.773-0.782-1.616-0.976-2.502c0.817,1.03,1.785,1.93,2.948,2.635c3.626,2.213,8.616,2.155,12.129-0.379 C294.385,248.18,295.735,246.123,296.341,243.891z"/>
            <path style="fill:#CC6F43;" d="M289.122,240.909c1.298,3.611-5.251,6.022-6.898,2.386 C280.412,239.294,287.939,237.619,289.122,240.909z"/>
          </g>
          <g>
            <path style="fill:#A64720;" d="M300.513,252.812c-2.929-1.313-5.126-4.404-5.027-7.677c0.106-3.499,2.726-6.544,5.852-7.988 c5.78-2.67,14.303,0.81,13.903,8.238C314.884,252.006,305.677,255.127,300.513,252.812z"/>
            <path style="fill:#612410;" d="M311.43,237.962c2.363,1.545,3.991,4.09,3.808,7.425c-0.351,6.616-9.556,9.744-14.723,7.425 c-0.797-0.359-1.537-0.841-2.193-1.435c1.233,0.356,2.512,0.522,3.835,0.424c4.135-0.296,8.068-3.169,9.423-7.173 C312.306,242.479,312.213,240.08,311.43,237.962z"/>
            <path style="fill:#CC6F43;" d="M304.004,239.683c3.077,2.134-0.761,7.76-4.13,5.804 C296.167,243.334,301.2,237.738,304.004,239.683z"/>
          </g>
          <g>
            <path style="fill:#A64720;" d="M315.665,251.432c-2.088-2.541-2.692-6.381-1.108-9.338c1.694-3.161,5.488-4.759,9.014-4.657 c6.522,0.189,12.752,7.272,8.995,13.903C329.217,257.252,319.346,255.913,315.665,251.432z"/>
            <path style="fill:#612410;" d="M332.458,242.792c1.462,2.496,1.794,5.574,0.104,8.55c-3.342,5.909-13.214,4.577-16.895,0.091 c-0.568-0.693-1.026-1.473-1.357-2.317c0.968,0.889,2.066,1.626,3.325,2.14c3.928,1.616,8.847,0.776,11.919-2.279 C331.2,247.335,332.21,245.092,332.458,242.792z"/>
            <path style="fill:#CC6F43;" d="M324.86,240.981c1.849,3.363-4.24,6.772-6.438,3.439 C316.005,240.753,323.175,237.917,324.86,240.981z"/>
          </g>
          <g>
            <path style="fill:#A64720;" d="M331.928,251.913c-0.987-2.723-0.361-6.087,1.823-8.077c2.335-2.127,5.954-2.339,8.851-1.218 c5.358,2.073,8.449,9.782,3.383,14.183C341.468,260.725,333.667,256.714,331.928,251.913z"/>
            <path style="fill:#612410;" d="M348.406,249.674c0.481,2.501-0.148,5.154-2.425,7.128c-4.51,3.923-12.314-0.082-14.052-4.887 c-0.268-0.742-0.419-1.524-0.445-2.322c0.543,1.023,1.237,1.956,2.131,2.753c2.786,2.495,7.116,3.243,10.563,1.609 C346.027,253.076,347.524,251.51,348.406,249.674z"/>
            <path style="fill:#CC6F43;" d="M342.631,245.939c0.547,3.335-5.509,4.376-6.354,0.964 C335.347,243.148,342.132,242.9,342.631,245.939z"/>
          </g>
        </g>
        <path style="fill:#FFFFFF;" d="M315.252,403.345c-43.642,3.597-78.272,0.469-95.094-1.73c-0.186-0.029-0.371-0.049-0.557-0.068 c-3.216-0.44-5.757-0.821-7.536-1.114c-0.078-0.01-0.147-0.029-0.225-0.039c-1.847-0.303-2.815-0.489-2.815-0.489l1.075-8.386 l0.039-0.332l4.33-33.848l2.092-16.391l0.196-1.505l0.01-0.107l0.235-1.799c1.652-0.381,3.284-0.743,4.897-1.114 c4.916-1.104,9.686-2.15,14.3-3.147c0.088-0.01,0.186-0.029,0.274-0.059c5.542-1.183,10.859-2.287,15.913-3.314 c1.554-0.323,3.079-0.626,4.574-0.929c3.871-0.772,7.565-1.495,11.074-2.17c25.755-4.936,41.58-7.223,41.58-7.223l0.684,10.224 l0.694,10.194L315.252,403.345z"/>
        <path style="fill:#FCB088;" d="M385.125,220.537c-0.912-2.021-2.176-3.855-3.189-5.823c-2.107-4.095-3.051-8.655-4.02-13.121 c-0.474-2.183-0.949-4.368-1.556-6.518c-0.563-1.993-1.154-4.261-2.236-6.044c-1.038-1.71-2.975-2.517-4.603-1.037 c-1.426,1.296-2.604,3.07-3.649,4.678c-2.105,3.241-3.67,6.86-4.659,10.594c-2.277,8.593-1.532,17.884,2.357,25.896 c-5.497,7.21-10.154,15.005-13.817,23.306c-7.788,3.549-16.647,2.935-24.987,3.694c-9.551,0.869-18.487,4.505-27.497,7.569 c-8.791,2.99-17.717,5.749-26.259,9.414c-7.782,3.339-15.308,7.686-21.11,13.95c-5.504,5.941-9.47,13.479-10.004,21.606 c-4.074-2.247-8.128-4.53-12.173-6.827c-1.526,0.811-3.292,1.129-4.995,1.321c-0.821,0.093-1.644,0.135-2.468,0.189 c-0.199,0.013-0.401,0.032-0.603,0.046c-0.135,0.025-0.27,0.048-0.405,0.06c0.844,9.526,0.745,19.116-0.301,28.628 c-0.107,0.977,0.952,1.45,1.733,1.337c20.228-2.923,41.087-3.403,61.383-0.823c5.323,0.676,10.662,1.795,15.456,4.284 c1.268,0.659,2.406-0.771,1.971-1.782c-0.21-3.008-0.236-6.02-0.086-9.023c4.421-3.025,9.318-5.331,14.218-7.47 c6.053-2.643,12.122-5.231,18.077-8.092c11.82-5.68,23.311-12.161,33.804-20.057c5.843-4.397,11.365-9.2,16.419-14.49 c0.26-0.272,0.371-0.573,0.383-0.868c0.176-0.207,0.298-0.476,0.327-0.806c0.946-10.516,1.892-21.032,2.838-31.548 c0.24-2.667,0.48-5.334,0.72-8.001c0.226-2.517,0.538-5.053,0.449-7.585C386.561,224.869,386.082,222.657,385.125,220.537z"/>
        <g>
          <path style="fill:#E0875E;" d="M204.349,323.362c-0.005-0.022-0.009-0.044-0.014-0.066c-0.073-0.323-0.163-0.643-0.27-0.959 c-0.005-0.014-0.007-0.029-0.012-0.043c-0.001,0.001-0.001,0.003-0.001,0.004c-1.141-3.331-4.098-6.202-7.552-7.078 c-2.697-0.684-5.753-0.351-8.031,1.151c0.02-0.16,0.034-0.321,0.044-0.482c0.012-0.18,0.014-0.36,0.015-0.542 c0.001-0.191,0.002-0.381-0.01-0.572c-0.012-0.196-0.037-0.391-0.061-0.587c-0.022-0.175-0.038-0.35-0.07-0.524 c-0.006-0.034-0.007-0.068-0.014-0.103c-0.002,0.004-0.005,0.009-0.007,0.013c-0.658-3.462-3.176-6.725-6.475-8.081 c-1.193-0.49-2.496-0.776-3.796-0.829c0.006-0.021,0.009-0.041,0.014-0.062c0.05-0.19,0.096-0.38,0.133-0.574 c0.034-0.178,0.058-0.357,0.081-0.536c0.024-0.189,0.048-0.377,0.06-0.568c0.012-0.197,0.011-0.394,0.011-0.592 c0-0.176,0.005-0.351-0.006-0.527c-0.002-0.035,0.001-0.069-0.001-0.104c-0.003,0.004-0.006,0.008-0.008,0.012 c-0.231-3.516-2.333-7.062-5.442-8.809c-2.687-1.51-6.133-1.953-8.88-0.674c0.026-0.13,0.043-0.261,0.063-0.392 c0.027-0.179,0.045-0.359,0.061-0.539c0.017-0.19,0.034-0.379,0.039-0.57c0.005-0.197-0.003-0.394-0.011-0.592 c-0.007-0.176-0.009-0.351-0.025-0.527c-0.003-0.035-0.001-0.069-0.005-0.104c-0.003,0.004-0.005,0.008-0.008,0.012 c-0.362-3.505-2.594-6.97-5.766-8.601c-1.989-1.022-4.355-1.461-6.536-1.103c0.041-0.097,0.069-0.198,0.106-0.296 c0.064-0.169,0.118-0.341,0.172-0.514c0.056-0.182,0.112-0.364,0.157-0.55c0.046-0.192,0.079-0.386,0.113-0.581 c0.03-0.173,0.065-0.345,0.085-0.52c0.004-0.035,0.013-0.068,0.017-0.103c-0.003,0.004-0.007,0.007-0.01,0.01 c0.376-3.504-1.086-7.358-3.849-9.613c-1.472-1.201-3.298-2.049-5.167-2.343c0.796-2.792,0.524-5.976-0.922-8.481 c-0.603-1.044-1.392-2.004-2.306-2.808c-1.131,2.013-2.647,3.882-3.979,5.637c-2.313,3.046-4.691,6.009-6.64,9.305 c0.779,0.888,1.683,1.627,2.698,2.128c0.665,0.329,1.378,0.551,2.129,0.657c-0.037,0.181-0.064,0.363-0.09,0.546 c-0.017,0.117-0.046,0.232-0.058,0.349c-0.044,0.428-0.06,0.857-0.039,1.285c0.009,0.181,0.024,0.363,0.046,0.546 c0.539,4.58,5.06,9.718,9.884,10.144c0.594,0.053,1.193,0.032,1.79-0.068c-0.359,0.91-0.572,1.881-0.616,2.867 c-0.002-0.005-0.005-0.009-0.007-0.014c-0.001,0.023,0.003,0.045,0.002,0.068c-0.012,0.322,0.002,0.643,0.024,0.964 c0.008,0.118,0.003,0.237,0.016,0.354c0.046,0.427,0.12,0.851,0.23,1.265c0.072,0.273,0.173,0.544,0.276,0.815 c1.614,4.237,6.916,8.116,11.601,7.582c0.8-0.091,1.58-0.318,2.323-0.687c-0.081,0.379-0.134,0.763-0.166,1.15 c-0.002-0.005-0.004-0.01-0.006-0.014c-0.002,0.023,0.001,0.045-0.001,0.068c-0.024,0.322-0.022,0.643-0.012,0.965 c0.004,0.118-0.005,0.236,0.003,0.354c0.031,0.429,0.089,0.855,0.182,1.273c0.057,0.252,0.142,0.503,0.225,0.754 c1.261,3.831,5.476,7.487,9.715,8.018c-0.246,0.888-0.361,1.815-0.323,2.743c-0.002-0.005-0.005-0.009-0.008-0.013 c0.001,0.023,0.006,0.045,0.007,0.067c0.015,0.322,0.057,0.641,0.106,0.959c0.018,0.117,0.023,0.235,0.046,0.351 c0.083,0.422,0.192,0.838,0.336,1.241c0.09,0.253,0.21,0.503,0.329,0.752c1.951,4.101,7.581,7.54,12.218,6.607 c0.952-0.191,1.851-0.591,2.678-1.181c-0.098,0.868-0.072,1.752,0.087,2.618c-0.003-0.004-0.007-0.008-0.01-0.012 c0.004,0.022,0.013,0.043,0.017,0.065c0.06,0.317,0.146,0.626,0.24,0.934c0.034,0.113,0.056,0.23,0.095,0.341 c0.141,0.406,0.308,0.802,0.508,1.182c0.125,0.237,0.278,0.467,0.43,0.696c2.509,3.786,8.568,6.398,13.028,4.821 c1.092-0.385,2.088-1.022,2.912-1.953c0.271-0.306,0.508-0.621,0.722-0.941c0.007-0.01,0.014-0.02,0.021-0.03 c0.207-0.312,0.386-0.631,0.542-0.954c0.011-0.022,0.022-0.045,0.033-0.067c0.152-0.322,0.28-0.649,0.383-0.978 c0.005-0.016,0.01-0.033,0.015-0.05C204.629,326.154,204.648,324.734,204.349,323.362z"/>
          <path style="fill:#E0875E;" d="M308.406,328.331c0.024-0.374,0.021-0.74-0.004-1.098c-0.002-0.025-0.003-0.049-0.005-0.073 c-0.028-0.356-0.08-0.703-0.154-1.041c-0.004-0.016-0.008-0.033-0.011-0.049c-0.316-1.399-1.005-2.641-1.948-3.683 c-0.015-0.016-0.029-0.033-0.044-0.049c-0.224-0.244-0.461-0.477-0.711-0.699c-0.011-0.01-0.02-0.021-0.031-0.031 c0,0.001,0,0.003,0.001,0.004c-2.646-2.323-6.639-3.343-10.072-2.386c-3.371,0.94-6.47,3.542-7.096,6.986 c-0.016,0.09-0.012,0.18-0.025,0.27c-0.151-0.452-0.343-0.89-0.566-1.314c-0.01-0.02-0.02-0.039-0.031-0.059 c-0.157-0.292-0.329-0.577-0.516-0.853c-0.008-0.012-0.014-0.026-0.023-0.038c0,0.001,0,0.003,0,0.004 c-1.989-2.906-5.604-4.883-9.167-4.807c-3.279,0.071-6.664,1.633-8.281,4.445c-0.028-0.05-0.062-0.096-0.091-0.145 c-0.089-0.153-0.182-0.303-0.28-0.45c-0.109-0.163-0.221-0.323-0.342-0.478c-0.111-0.143-0.229-0.28-0.349-0.416 c-0.126-0.143-0.251-0.285-0.386-0.42c-0.139-0.139-0.288-0.269-0.437-0.4c-0.132-0.116-0.26-0.235-0.399-0.344 c-0.027-0.022-0.051-0.047-0.079-0.068c0.001,0.005,0.002,0.01,0.003,0.014c-2.791-2.151-6.841-2.918-10.207-1.741 c-2.544,0.89-4.858,2.756-5.973,5.154c-0.076-0.114-0.159-0.223-0.241-0.334c-0.118-0.158-0.238-0.313-0.366-0.462 c-0.118-0.137-0.242-0.268-0.368-0.397c-0.133-0.137-0.265-0.273-0.408-0.402c-0.146-0.132-0.3-0.254-0.454-0.377 c-0.138-0.11-0.272-0.223-0.416-0.325c-0.028-0.02-0.053-0.044-0.082-0.064c0.002,0.005,0.003,0.009,0.004,0.014 c-2.892-2.013-6.975-2.583-10.28-1.243c-2.242,0.909-4.263,2.592-5.375,4.698c-0.064-0.06-0.137-0.108-0.203-0.165 c-0.128-0.111-0.258-0.217-0.391-0.319c-0.149-0.114-0.299-0.223-0.455-0.326c-0.143-0.094-0.289-0.179-0.437-0.263 c-0.156-0.089-0.311-0.178-0.472-0.256c-0.165-0.08-0.334-0.148-0.504-0.218c-0.151-0.062-0.3-0.128-0.455-0.18 c-0.03-0.01-0.059-0.025-0.09-0.035c0.003,0.004,0.005,0.008,0.008,0.012c-3.084-1.018-6.725-0.302-9.109,1.984 c-2.34,2.244-3.782,5.883-2.886,9.264c0.612,2.308,2.275,4.177,4.272,5.2c-0.005,0-0.009,0.001-0.014,0.001 c0.019,0.01,0.039,0.015,0.058,0.025c0.269,0.136,0.546,0.246,0.826,0.35c0.102,0.038,0.2,0.087,0.303,0.121 c0.377,0.122,0.759,0.217,1.145,0.277c0.245,0.038,0.498,0.048,0.75,0.058c3.577,0.145,7.803-2.408,9.519-6.06 c0.228,0.21,0.473,0.399,0.721,0.585c0.094,0.071,0.181,0.151,0.278,0.218c0.354,0.244,0.723,0.464,1.109,0.652 c0.228,0.111,0.474,0.199,0.718,0.29c4.263,1.591,10.725,0.113,13.395-3.811c0.227-0.333,0.423-0.685,0.591-1.053 c0.305,0.462,0.643,0.901,1.028,1.301c-0.005-0.002-0.01-0.003-0.015-0.005c0.016,0.016,0.035,0.029,0.05,0.045 c0.225,0.231,0.468,0.442,0.717,0.648c0.09,0.075,0.173,0.159,0.266,0.23c0.342,0.261,0.7,0.499,1.076,0.705 c0.262,0.143,0.543,0.265,0.827,0.382c4.185,1.719,10.613,0.538,13.44-3.213c0.162-0.215,0.296-0.449,0.433-0.68 c0.134,0.268,0.293,0.521,0.454,0.774c0.063,0.1,0.116,0.207,0.183,0.304c0.244,0.354,0.511,0.691,0.805,1.003 c0.191,0.203,0.407,0.392,0.625,0.579c3.435,2.962,9.95,3.851,13.818,1.148c0.95-0.663,1.74-1.542,2.286-2.659 c0.179-0.367,0.324-0.734,0.445-1.1c0.004-0.011,0.008-0.023,0.012-0.034c0.116-0.356,0.203-0.711,0.268-1.064 c0.004-0.025,0.009-0.049,0.014-0.074c0.019-0.112,0.038-0.223,0.052-0.334c0.354,1.036,0.912,2.008,1.626,2.853 c-0.005-0.002-0.01-0.004-0.014-0.006c0.015,0.017,0.033,0.031,0.047,0.049c0.21,0.245,0.439,0.471,0.673,0.692 c0.086,0.081,0.163,0.171,0.251,0.248c0.324,0.282,0.666,0.543,1.028,0.773c0.231,0.146,0.482,0.272,0.733,0.398 c4.06,2.029,10.606,1.28,13.687-2.301c0.756-0.878,1.304-1.924,1.556-3.142c0.083-0.4,0.132-0.792,0.159-1.176 C308.403,328.354,308.405,328.343,308.406,328.331z"/>
        </g>
        <g>
          <path style="fill:#E0875E;" d="M380.019,209.682c-0.363-0.638-1.243-0.907-1.885-0.52c-0.319,0.192-0.276,0.182-0.585,0.265 c-0.028,0.007-0.224,0.048-0.261,0.06c-0.101,0.011-0.203,0.016-0.303,0.017c-0.12,0.002-0.24-0.003-0.359-0.011 c-0.26-0.016,0.011,0.022-0.225-0.035c-0.143-0.035-0.286-0.065-0.428-0.108c0.007,0.002-0.238-0.081-0.263-0.084 c-0.239-0.097-0.471-0.225-0.69-0.36c-0.088-0.054-0.174-0.112-0.259-0.171c-0.021-0.02-0.195-0.156-0.219-0.177 c-0.473-0.423-0.755-0.767-1.061-1.236c-0.648-0.993-1.113-2.101-1.517-3.126c-0.558-1.416-1.112-2.833-1.667-4.25 c-0.272-0.694-0.907-1.191-1.688-0.987c-0.656,0.172-1.261,0.989-0.987,1.688c0.615,1.569,1.221,3.142,1.848,4.706 c0.576,1.439,1.188,2.838,2.138,4.074c1.791,2.329,5.156,3.788,7.891,2.14C380.139,211.182,380.395,210.342,380.019,209.682z"/>
          <path style="fill:#E0875E;" d="M246.14,294.638c0.253-0.241,0.405-0.631,0.405-0.977c0-0.339-0.15-0.745-0.405-0.977 c-0.264-0.241-0.609-0.421-0.977-0.405c-0.372,0.016-0.704,0.144-0.978,0.405c-0.849,0.81-1.47,1.89-1.743,3.031 c-0.082,0.343-0.041,0.725,0.135,1.033c0.169,0.298,0.51,0.581,0.852,0.655c0.343,0.074,0.727,0.058,1.033-0.135 c0.311-0.196,0.567-0.485,0.655-0.852c0.045-0.186,0.109-0.366,0.174-0.546c0.125-0.273,0.273-0.533,0.444-0.78 C245.864,294.933,245.994,294.778,246.14,294.638z"/>
          <path style="fill:#E0875E;" d="M370.952,186.974c-3.394,0.841-6.138,4.477-7.864,7.318c-1.907,3.14-3.129,6.713-3.757,10.323 c-1.458,8.379,0.185,16.837,1.882,25.054c-0.06,0.049-0.125,0.09-0.185,0.142c-1.949,1.698-3.293,4.3-4.625,6.476 c-3.002,4.904-5.586,10.051-7.756,15.375c-0.284,0.696-0.186,1.474,0.52,1.885c0.581,0.339,1.604,0.171,1.885-0.52 c2.009-4.929,4.371-9.708,7.095-14.282c1.249-2.096,2.487-4.405,4.104-6.244c0.733-0.833,1.531-1.378,2.642-1.548 c1.259-0.193,2.511-0.132,3.733-0.553c1.676-0.577,0.983-3.254-0.701-2.674c-1.212,0.417-2.482,0.337-3.733,0.553 c-0.147,0.025-0.284,0.07-0.427,0.105c-1.512-7.309-3.011-14.893-1.878-22.348c0.491-3.229,1.428-6.406,2.981-9.288 c0.763-1.415,1.656-2.759,2.721-3.966c1.088-1.234,2.415-2.724,4.063-3.133C373.385,189.22,372.679,186.546,370.952,186.974z"/>
          <path style="fill:#E0875E;" d="M349.089,251.138c-28.536,3.446-56.07,12.801-82.648,23.436 c-3.598,1.44-7.122,3.026-10.317,5.242c-3.015,2.09-5.723,4.569-8.056,7.4c-1.121,1.361,0.822,3.329,1.955,1.955 c4.286-5.2,9.673-8.82,15.857-11.406c6.44-2.693,13.027-5.089,19.589-7.467c13.109-4.749,26.417-9.009,40.005-12.171 c7.791-1.813,15.672-3.265,23.615-4.224C350.836,253.691,350.854,250.924,349.089,251.138z"/>
        </g>
      </g>
      <path style="fill:#FFFFFF;" d="M211.664,339.021l-36.282,46.789c0,0-53.387-32.939-77.441-92.855l30.007-24.856l6.187-5.132 c0,0,2.483,4.907,7.575,12.667c0.176,0.254,0.342,0.518,0.518,0.782c2.336,3.529,5.19,7.614,8.572,12.061 c4.438,5.825,9.764,12.296,16.02,18.982c1.456,1.554,2.971,3.128,4.535,4.711c4.369,4.428,9.149,8.914,14.329,13.342l9.823-0.196 l8.201-5.972L211.664,339.021z"/>
      <g>
        <path style="fill:#C7E1E4;" d="M310.296,329.804c-0.205-0.215-0.42-0.42-0.645-0.626c-0.01-0.01-0.02-0.02-0.029-0.029 c-1.984-1.73-4.711-2.747-7.399-2.747c-0.909,0-1.808,0.117-2.678,0.362c-3.275,0.919-6.295,3.402-7.028,6.715 c-0.01-0.01-0.01-0.019-0.01-0.029c-0.01-0.02-0.02-0.039-0.029-0.059c-0.166-0.283-0.332-0.577-0.518-0.85 c-0.01-0.01-0.02-0.02-0.029-0.039c-1.994-2.903-5.601-4.877-9.168-4.799c-3.499,0.078-7.145,1.828-8.601,5.014 c-0.029,0.059-0.049,0.137-0.068,0.205c-0.039-0.127-0.068-0.254-0.108-0.371c-0.059-0.196-0.127-0.371-0.205-0.557 c-0.068-0.166-0.137-0.332-0.215-0.499c-0.088-0.176-0.176-0.352-0.274-0.518c-0.098-0.156-0.186-0.303-0.284-0.449 c-0.107-0.166-0.225-0.323-0.342-0.479c-0.107-0.147-0.235-0.283-0.352-0.42c-0.127-0.137-0.254-0.283-0.381-0.42 c-0.147-0.137-0.293-0.264-0.44-0.401c-0.137-0.117-0.264-0.235-0.401-0.342c-0.029-0.02-0.049-0.049-0.078-0.068 c0,0.01,0,0.01,0,0.02c-0.889-0.684-1.906-1.232-2.981-1.613c-2.316-0.831-4.926-0.938-7.223-0.127 c-1.408,0.489-2.746,1.28-3.851,2.297c-1.026,0.938-1.847,2.072-2.326,3.343c-0.029-0.049-0.068-0.098-0.098-0.137 c-0.098-0.156-0.195-0.293-0.303-0.44c-0.117-0.156-0.235-0.313-0.362-0.46c-0.117-0.137-0.244-0.274-0.371-0.401 c-0.137-0.137-0.264-0.274-0.411-0.401c-0.146-0.127-0.293-0.254-0.449-0.381c-0.078-0.068-0.166-0.127-0.254-0.195 c-0.049-0.039-0.108-0.088-0.166-0.127c-0.029-0.02-0.049-0.039-0.078-0.059v0.01c-2.893-2.013-6.969-2.58-10.273-1.241 c-2.258,0.909-4.281,2.61-5.396,4.731c-0.039,0.068-0.068,0.147-0.107,0.215c-0.049-0.059-0.107-0.117-0.166-0.156 c-0.078-0.088-0.156-0.156-0.244-0.225c-0.127-0.117-0.254-0.225-0.391-0.323c-0.146-0.117-0.293-0.225-0.45-0.323 c-0.147-0.098-0.293-0.186-0.44-0.264c-0.156-0.088-0.313-0.176-0.469-0.254c-0.166-0.088-0.342-0.156-0.508-0.225 c-0.147-0.059-0.303-0.127-0.45-0.176c-0.039-0.01-0.059-0.029-0.088-0.029c-3.079-1.017-6.725-0.293-9.11,1.994 c-0.87,0.821-1.593,1.847-2.15,2.971c-0.596,1.251-0.958,2.639-0.987,4.047c-0.059-0.039-0.127-0.068-0.195-0.108 c-0.166-0.098-0.342-0.176-0.508-0.254c-0.156-0.078-0.313-0.147-0.469-0.205c-0.176-0.068-0.342-0.127-0.528-0.186 c-0.156-0.049-0.323-0.098-0.489-0.137c-0.176-0.039-0.352-0.078-0.528-0.117c-0.176-0.029-0.362-0.049-0.538-0.068 c-0.166-0.02-0.323-0.039-0.489-0.049c-0.029,0-0.068-0.01-0.098-0.01c0.01,0.01,0.01,0.01,0.01,0.01 c-0.108,0-0.205-0.01-0.313-0.01l-2.297,18.004l-4.33,33.848c0.362,0.098,0.733,0.176,1.085,0.244 c0.342,0.078,0.684,0.127,0.997,0.156c0.176,0.02,0.332,0.02,0.489,0.039h0.254c0,0.841,0.068,1.671,0.225,2.483 c-0.391,0.567-0.45,1.31-0.235,1.984c0.049,0.137,0.117,0.274,0.195,0.401c-0.547,0.45-0.997,0.997-1.202,1.701 c-0.225,0.753-0.156,1.437,0.088,2.16c0,0.029,0.01,0.049,0.029,0.078c1.779,0.293,4.32,0.674,7.536,1.114 c0.147-0.313,0.147-0.684,0.029-1.017c0.108-0.547,0.049-1.104-0.117-1.642c-0.371-1.144-1.359-1.994-2.375-2.541 c-0.117-0.069-0.235-0.108-0.342-0.156c0.107-0.303,0.127-0.616,0.078-0.938c-0.01-0.156-0.02-0.303-0.059-0.45 c0.029-0.098,0.078-0.186,0.078-0.284c0.049-0.684-0.401-1.241-1.085-1.339c-0.108-0.02-0.215,0-0.313,0 c-0.049-0.283-0.088-0.577-0.108-0.86c-0.01-0.098-0.019-0.215-0.019-0.313c-0.01-0.029,0-0.059,0-0.088c0,0,0,0-0.01,0 c0.01-0.156,0.01-0.303,0.02-0.459c1.799-0.293,3.597-0.977,4.868-2.111c1.134-1.016,1.495-2.58,0.792-3.929 c-0.694-1.28-2.013-2.111-2.708-3.392c-0.674-1.241-0.508-2.316-0.078-3.607c0.498-1.505,1.036-2.981,1.554-4.486 c1.085-3.108,2.199-6.695,0.723-9.862c-0.283-0.635-0.674-1.193-1.105-1.681c0.029-0.156,0.039-0.323,0.02-0.469 c-0.068-0.479-0.381-0.821-0.772-0.997c0.772-0.479,1.417-1.153,1.73-2.052c0.088-0.244,0.137-0.489,0.166-0.743 c0.107,0.02,0.205,0.049,0.303,0.059c0.391,0.059,0.782,0.078,1.183,0.068c0.244,0,0.499-0.029,0.763-0.068 c4.056-0.547,8.376-4.741,8.601-9.364c0.009-0.17,0.001-0.341-0.002-0.512c2.806-0.886,5.506-3.075,6.717-5.881 c0.049,0.039,0.098,0.098,0.137,0.147c0.02,0.02,0.039,0.029,0.059,0.049c0.234,0.215,0.489,0.41,0.743,0.606 c0.098,0.068,0.186,0.156,0.283,0.215c0.352,0.244,0.723,0.469,1.105,0.655c0.225,0.108,0.479,0.195,0.723,0.293 c4.261,1.593,10.722,0.107,13.391-3.812c0.332-0.479,0.577-1.016,0.782-1.564c0.342,0.557,0.743,1.085,1.202,1.564 c0.01,0.02,0.029,0.029,0.039,0.039c0.225,0.235,0.459,0.44,0.714,0.645c0.088,0.078,0.176,0.166,0.264,0.235 c0.342,0.254,0.704,0.498,1.075,0.704c0.244,0.137,0.508,0.244,0.782,0.362c4.203,1.759,10.703,0.557,13.527-3.255 c0.332-0.45,0.596-0.948,0.821-1.476c0.147,0.606,0.362,1.202,0.635,1.769c0,0.02,0.01,0.029,0.02,0.049 c0.147,0.293,0.313,0.567,0.479,0.841c0.068,0.098,0.117,0.205,0.186,0.303c0.244,0.352,0.508,0.694,0.801,1.007 c0.195,0.205,0.411,0.391,0.626,0.577c3.431,2.961,9.95,3.851,13.821,1.143c0.948-0.655,1.74-1.535,2.287-2.659 c0.176-0.362,0.322-0.733,0.44-1.095c0-0.01,0.01-0.02,0.01-0.039c0.107-0.313,0.186-0.635,0.254-0.948 c0.293,0.567,0.655,1.095,1.065,1.583h-0.01c0.01,0.02,0.029,0.029,0.039,0.049c0.215,0.244,0.44,0.469,0.674,0.684 c0.088,0.088,0.166,0.176,0.254,0.254c0.323,0.283,0.665,0.538,1.026,0.772c0.244,0.156,0.518,0.293,0.782,0.42 c4.066,2.004,10.566,1.241,13.645-2.326c0.059-0.078,0.127-0.147,0.176-0.225L310.296,329.804z"/>
        <path style="fill:#C7E1E4;" d="M197.951,343.42c-0.02-0.195-0.059-0.391-0.098-0.586c-0.039-0.166-0.068-0.342-0.107-0.518 c-0.01-0.029-0.01-0.068-0.02-0.098l-0.01,0.01c-0.899-3.401-3.646-6.48-7.028-7.595c-2.248-0.753-4.809-0.763-6.989,0.068 c0.01-0.039,0.02-0.068,0.039-0.107c0.068-0.166,0.137-0.323,0.205-0.499c0.068-0.186,0.127-0.371,0.176-0.567 c0.049-0.166,0.088-0.342,0.127-0.508c0.039-0.195,0.078-0.391,0.098-0.586c0.029-0.176,0.039-0.352,0.059-0.538 c0.01-0.186,0.029-0.381,0.029-0.567c0-0.195-0.01-0.391-0.019-0.596c-0.01-0.176-0.01-0.352-0.029-0.528 c-0.01-0.029-0.01-0.068-0.01-0.098l-0.01,0.01c-0.411-3.499-2.688-6.93-5.884-8.513c-2.033-1.007-4.438-1.407-6.627-0.997 c0.01-0.029,0.02-0.059,0.029-0.088c0.068-0.166,0.127-0.332,0.186-0.499c0.068-0.186,0.127-0.371,0.176-0.557 c0.049-0.176,0.088-0.352,0.117-0.528c0.039-0.195,0.078-0.381,0.098-0.567c0.029-0.195,0.039-0.391,0.059-0.586 c0.01-0.176,0.029-0.352,0.029-0.528c0-0.039,0.01-0.068,0.01-0.108c-0.01,0.01-0.01,0.01-0.01,0.01 c0.01-1.691-0.411-3.431-1.193-4.985c-0.831-1.681-2.072-3.167-3.617-4.183c-0.293-0.195-0.606-0.372-0.919-0.528 c-2.424-1.3-5.376-1.73-7.878-0.782c0.049-0.147,0.098-0.303,0.147-0.45c0.059-0.186,0.107-0.381,0.156-0.567 c0.039-0.176,0.068-0.362,0.098-0.538c0.029-0.186,0.059-0.371,0.078-0.567c0.02-0.195,0.02-0.391,0.029-0.586 c0.01-0.176,0.02-0.352,0.01-0.528c0-0.039,0.01-0.068,0-0.108c-0.117-3.519-2.102-7.125-5.151-8.973 c-1.544-0.938-3.372-1.515-5.17-1.593c0-0.01,0.01-0.029,0.02-0.039c0.117-0.156,0.225-0.322,0.332-0.489 c0.098-0.147,0.186-0.303,0.274-0.45c0.098-0.176,0.186-0.352,0.264-0.528c0.078-0.166,0.147-0.332,0.205-0.498 c0.078-0.176,0.147-0.362,0.195-0.538c0.059-0.186,0.107-0.381,0.156-0.577c0.039-0.166,0.088-0.332,0.127-0.508 c0-0.039,0.01-0.068,0.02-0.107c0,0.01-0.01,0.01-0.01,0.01c0.029-0.186,0.059-0.371,0.078-0.567 c0.411-3.313-0.782-6.979-3.245-9.285c-1.466-1.388-3.353-2.404-5.327-2.776c-0.45-0.088-0.909-0.137-1.368-0.156 c0.156-0.098,0.313-0.215,0.459-0.323c0.137-0.098,0.264-0.195,0.391-0.303c-5.092-7.761-7.575-12.667-7.575-12.667l-6.187,5.132 c0.45,3.401,2.219,6.832,4.985,8.455c1.007,0.577,2.131,0.929,3.372,0.958c0.059,0,0.117-0.01,0.166-0.01 c-1.495,1.016-2.629,2.571-3.216,4.33c-0.01,0.01-0.01,0.029-0.02,0.049c-0.098,0.303-0.176,0.616-0.244,0.929 c-0.029,0.117-0.059,0.225-0.078,0.342c-0.078,0.43-0.127,0.85-0.137,1.28c0,0.195,0,0.381,0.01,0.577 c0.234,4.633,4.418,10.087,9.227,10.801c0.137,0.02,0.264,0.039,0.401,0.049c-0.85,1.183-1.378,2.6-1.544,4.066 c0-0.01-0.01-0.01-0.01-0.02v0.069c-0.039,0.322-0.039,0.645-0.049,0.968c0,0.117-0.01,0.235,0,0.352 c0.01,0.43,0.059,0.86,0.137,1.28c0.049,0.284,0.137,0.577,0.225,0.86c1.329,4.33,6.324,8.552,11.025,8.347 c0.811-0.029,1.603-0.205,2.375-0.518c-0.215,0.577-0.381,1.163-0.479,1.769c0,0.02,0,0.039-0.01,0.069 c-0.039,0.313-0.068,0.635-0.078,0.958c0,0.117-0.02,0.235-0.02,0.352c0,0.43,0.029,0.86,0.088,1.28 c0.029,0.205,0.078,0.401,0.117,0.606c1.036,4.496,6.07,9.119,10.908,9.022c0.371-0.01,0.733-0.049,1.104-0.107 c-0.391,0.968-0.616,2.013-0.645,3.069c-0.01,0-0.01-0.01-0.01-0.01v0.069c-0.01,0.322,0.01,0.635,0.039,0.958 c0.01,0.117,0.01,0.234,0.019,0.352c0.059,0.43,0.137,0.85,0.254,1.261c0.068,0.274,0.176,0.538,0.274,0.801 c1.671,4.213,7.038,8.035,11.719,7.428c0.547-0.068,1.075-0.225,1.593-0.42c-0.577,1.349-0.772,2.854-0.616,4.33 c0,0.02,0.01,0.049,0.01,0.068c0.039,0.322,0.098,0.635,0.176,0.948c0.02,0.117,0.039,0.235,0.068,0.342 c0.107,0.42,0.244,0.831,0.42,1.222c0.098,0.225,0.225,0.449,0.352,0.674c2.219,3.978,8.103,7.037,12.687,5.776 c1.114-0.303,2.15-0.87,3.04-1.74c0.107-0.107,0.186-0.225,0.283-0.332c0.195-0.205,0.381-0.401,0.547-0.616 c0.117-0.156,0.205-0.313,0.313-0.469c0.117-0.186,0.244-0.362,0.342-0.547c0.098-0.176,0.176-0.352,0.254-0.528 c0.078-0.176,0.156-0.352,0.225-0.528c0.068-0.186,0.127-0.381,0.176-0.567c0.049-0.176,0.098-0.342,0.137-0.518 c0.039-0.195,0.068-0.391,0.098-0.586c0.019-0.176,0.039-0.352,0.049-0.528c0.01-0.195,0.02-0.391,0.02-0.586 c0-0.186-0.01-0.362-0.02-0.547C197.99,343.801,197.98,343.605,197.951,343.42z"/>
      </g>
      <path d="M211.666,339.016l-7.958-19.671l-15.064,10.112C188.644,329.457,198.923,342.127,211.666,339.016z"/>
      <g>
        <g>
          <path style="fill:#A64720;" d="M124.883,252.557c1.012-3.114,3.866-5.666,7.132-5.901c3.491-0.252,6.784,2.1,8.534,5.13 c3.236,5.604,0.631,14.629-6.797,14.985C127.129,267.089,123.1,258.046,124.883,252.557z"/>
          <path style="fill:#612410;" d="M140.752,262.133c-1.299,2.562-3.668,4.479-7.004,4.635c-6.616,0.322-10.653-8.717-8.865-14.21 c0.276-0.848,0.682-1.649,1.207-2.378c-0.23,1.29-0.267,2.608-0.037,3.944c0.71,4.174,3.963,7.879,8.082,8.847 C136.347,263.487,138.724,263.146,140.752,262.133z"/>
          <path style="fill:#CC6F43;" d="M138.294,254.758c-1.814,3.349-7.796,0.024-6.188-3.604 C133.875,247.163,139.947,251.706,138.294,254.758z"/>
        </g>
        <g>
          <path style="fill:#A64720;" d="M130.721,273.924c-0.158-3.27,1.606-6.668,4.575-8.047c3.174-1.473,7.087-0.442,9.798,1.771 c5.014,4.092,5.778,13.455-1.041,16.422C137.975,286.715,131.001,279.689,130.721,273.924z"/>
          <path style="fill:#612410;" d="M148.955,277.251c-0.306,2.856-1.841,5.488-4.905,6.818c-6.072,2.648-13.052-4.373-13.328-10.142 c-0.042-0.891,0.053-1.784,0.286-2.651c0.242,1.288,0.675,2.533,1.364,3.701c2.144,3.652,6.499,5.962,10.694,5.406 C145.316,280.079,147.418,278.918,148.955,277.251z"/>
          <path style="fill:#CC6F43;" d="M144.041,271.227c-0.508,3.775-7.281,2.787-7.064-1.175 C137.216,265.692,144.504,267.787,144.041,271.227z"/>
        </g>
        <g>
          <path style="fill:#A64720;" d="M140.148,291.439c-0.836-3.165,0.182-6.857,2.799-8.823c2.798-2.102,6.84-1.908,9.952-0.309 c5.756,2.959,8.453,11.957,2.402,16.279C149.906,302.44,141.622,297.02,140.148,291.439z"/>
          <path style="fill:#612410;" d="M158.674,290.896c0.295,2.857-0.658,5.751-3.377,7.689c-5.388,3.854-13.676-1.559-15.148-7.145 c-0.227-0.862-0.32-1.756-0.273-2.652c0.505,1.209,1.188,2.337,2.105,3.336c2.857,3.125,7.598,4.478,11.585,3.06 C155.705,294.42,157.519,292.846,158.674,290.896z"/>
          <path style="fill:#CC6F43;" d="M152.614,286.027c0.289,3.798-6.541,4.242-7.154,0.322 C144.786,282.035,152.351,282.567,152.614,286.027z"/>
        </g>
        <g>
          <path style="fill:#A64720;" d="M154.173,303.602c-0.717-3.194,0.437-6.845,3.126-8.713c2.875-1.996,6.906-1.652,9.957,0.063 c5.642,3.171,8.002,12.263,1.793,16.357C163.514,314.959,155.438,309.234,154.173,303.602z"/>
          <path style="fill:#612410;" d="M172.706,303.75c0.188,2.866-0.872,5.723-3.662,7.558c-5.527,3.651-13.609-2.068-14.871-7.704 c-0.194-0.87-0.254-1.767-0.174-2.661c0.46,1.227,1.1,2.38,1.979,3.412c2.739,3.229,7.426,4.758,11.463,3.49 C169.608,307.161,171.479,305.656,172.706,303.75z"/>
          <path style="fill:#CC6F43;" d="M166.832,298.659c0.147,3.806-6.694,3.995-7.16,0.055 C159.158,294.378,166.698,295.191,166.832,298.659z"/>
        </g>
        <g>
          <path style="fill:#A64720;" d="M166.998,317.953c-1.101-3.083-0.4-6.847,2.041-9.029c2.61-2.332,6.653-2.481,9.891-1.151 c5.986,2.46,9.437,11.197,3.773,16.016C177.653,328.086,168.939,323.388,166.998,317.953z"/>
          <path style="fill:#612410;" d="M185.411,315.841c0.536,2.822-0.168,5.786-2.713,7.948c-5.041,4.297-13.759-0.394-15.699-5.835 c-0.299-0.84-0.468-1.723-0.497-2.62c0.606,1.162,1.382,2.228,2.38,3.145c3.112,2.872,7.95,3.817,11.803,2.067 C182.751,319.604,184.425,317.882,185.411,315.841z"/>
          <path style="fill:#CC6F43;" d="M178.96,311.503c0.61,3.759-6.157,4.781-7.101,0.927 C170.822,308.189,178.404,308.078,178.96,311.503z"/>
        </g>
        <g>
          <path style="fill:#A64720;" d="M181.651,331.666c-1.525-2.897-1.361-6.723,0.748-9.226c2.255-2.676,6.237-3.394,9.63-2.533 c6.273,1.592,10.92,9.755,5.992,15.325C193.628,340.197,184.339,336.774,181.651,331.666z"/>
          <path style="fill:#612410;" d="M199.583,326.98c0.929,2.718,0.649,5.752-1.566,8.251c-4.386,4.965-13.678,1.548-16.365-3.564 c-0.414-0.79-0.706-1.639-0.861-2.524c0.764,1.065,1.682,2.011,2.8,2.778c3.485,2.404,8.409,2.659,11.976,0.383 C197.48,331.081,198.895,329.14,199.583,326.98z"/>
          <path style="fill:#CC6F43;" d="M192.585,323.595c1.134,3.636-5.422,5.601-6.899,1.918 C184.061,321.461,191.552,320.282,192.585,323.595z"/>
        </g>
        <g>
          <g>
            <path style="fill:#612410;" d="M212.121,406.751c-0.1-1.562-2.541-1.571-2.441,0c0.584,9.166,6.19,16.544,11.594,23.547 c5.568,7.215,11.793,15.797,10.008,25.466c-0.283,1.535,2.075,2.169,2.361,0.619 C237.381,436.14,213.327,425.659,212.121,406.751z"/>
            <path d="M226.122,426.4c-1.28-4.175-4.15-7.53-6.917-10.804c-2.977-3.522-5.946-7.169-7.572-11.542 c-0.543-1.462-2.909-0.853-2.361,0.619c1.508,4.056,3.974,7.532,6.705,10.853c2.804,3.41,6.166,6.739,7.627,11.007 c2.91,8.499-2.413,17.376-1.849,26.024c0.102,1.562,2.543,1.571,2.441,0C223.624,443.796,228.792,435.107,226.122,426.4z"/>
            <path style="fill:#612410;" d="M229.729,421.949c-2.376-3.668-5.384-6.757-8.818-9.442c-3.52-2.752-7.251-5.258-10.107-8.745 c-0.994-1.214-2.713,0.52-1.726,1.726c2.692,3.287,6.162,5.711,9.505,8.279c3.348,2.572,6.388,5.439,8.745,8.965 c5.132,7.678,6.401,16.905,7.076,25.916c0.117,1.559,2.558,1.57,2.441,0C236.153,439.406,234.873,429.892,229.729,421.949z"/>
            <path d="M229.132,452.619c-4.178-7.643-10.877-13.796-13.321-22.353c-2.521-8.829-1.596-18.221-3.983-27.087 c-0.409-1.519-2.77-0.899-2.361,0.619c2.432,9.03,1.405,18.631,4.134,27.597c2.605,8.561,9.202,14.733,13.409,22.429 C227.763,455.205,229.885,453.996,229.132,452.619z"/>
            <path style="fill:#612410;" d="M224.19,437.889c-3.127-2.403-6.263-4.88-8.793-7.93c-6.142-7.405-5.079-16.84-3.681-25.699 c0.242-1.537-2.116-2.174-2.361-0.619c-1.37,8.681-2.581,18.131,2.654,25.842c2.287,3.368,5.328,6.094,8.498,8.609 c2.908,2.307,7.098,4.592,7.887,8.525c0.31,1.544,2.669,0.915,2.361-0.619C230.019,442.33,226.99,440.041,224.19,437.889z"/>
            <path d="M228.287,421.188c-2.739-2.277-5.549-4.463-7.886-7.172c-2.503-2.902-4.467-6.221-6.288-9.579 c-0.75-1.384-2.871-0.174-2.123,1.205c1.675,3.088,3.485,6.097,5.665,8.859c2.236,2.834,4.928,5.147,7.708,7.425 c2.692,2.206,5.452,4.458,7.448,7.346c2.06,2.982,3.307,6.365,3.793,9.948c0.211,1.556,2.57,0.919,2.361-0.619 C237.972,431.294,233.824,425.791,228.287,421.188z"/>
            <path d="M218.013,447.64c-2.642-2.618-3.364-6.328-3.363-9.925c0.001-3.977,0.581-7.928,0.573-11.911 c-0.017-7.857-1.299-15.688-3.733-23.155c-0.486-1.49-2.849-0.876-2.361,0.619c2.612,8.014,3.869,16.401,3.622,24.831 c-0.21,7.155-2.175,15.606,3.537,21.267C217.402,450.471,219.13,448.748,218.013,447.64z"/>
            <path style="fill:#612410;" d="M224.396,448.547c-2.909-3.176-3.575-7.521-3.779-11.669c-0.212-4.304-0.286-8.59-0.835-12.872 c-0.997-7.775-3.319-15.477-8.057-21.822c-0.929-1.244-3.061-0.051-2.123,1.205c5.081,6.805,7.271,15.113,8.057,23.463 c0.733,7.794-0.726,17.156,5.011,23.421C223.732,451.432,225.456,449.703,224.396,448.547z"/>
          </g>
          <g>
            <g>
              <polygon style="fill:#612410;" points="209.191,396.439 209.189,396.44 209.19,396.44 &#9;&#9;&#9;&#9;&#9;&#9;"/>
              <g>
                <path style="fill:#612410;" d="M210.002,399.764c0.002-0.003,0.005-0.007,0.007-0.01 C210.006,399.758,210.005,399.76,210.002,399.764z"/>
                <path style="fill:#612410;" d="M212.028,395.069c-0.673-0.334-1.422-0.112-1.813,0.524c-0.019,0.031-0.047,0.071-0.068,0.108 c-0.07,0.086-0.145,0.168-0.224,0.246c-0.038,0.038-0.078,0.074-0.117,0.11c-0.097,0.049-0.193,0.141-0.283,0.197 c-0.108,0.067-0.219,0.126-0.332,0.185c0.029-0.014,0.059-0.027,0.079-0.032c-0.027,0.007-0.053,0.02-0.08,0.033 c-0.001,0-0.002,0.001-0.003,0.001c-0.106,0.056-0.058,0.028,0.002-0.001c-0.026,0.012-0.052,0.022-0.077,0.032 c-0.238,0.092-0.484,0.164-0.734,0.218c-0.026,0.006-0.053,0.011-0.08,0.016c-0.09-0.02-0.271,0.036-0.363,0.043 c-0.24,0.02-0.481,0.027-0.722,0.024c-0.235-0.003-0.47-0.016-0.705-0.034c-0.245-0.246-0.577-0.399-0.947-0.373 c-0.701,0.049-1.345,0.621-1.301,1.367c0.046,0.775,0.533,1.299,1.247,1.537c0.356,0.119,0.76,0.117,1.133,0.144 c0.735,0.053,1.45,0.014,2.176-0.107c0.572-0.096,1.124-0.273,1.635-0.527c-0.004,0.016-0.006,0.033-0.01,0.049 c-0.013,0.053-0.118,0.292-0.109,0.351c-0.02,0.043-0.039,0.087-0.06,0.129c-0.056,0.114-0.118,0.225-0.184,0.333 c-0.007,0.011-0.051,0.071-0.08,0.114c0.04-0.054,0.108-0.12,0.009,0c-0.008,0.009-0.016,0.018-0.024,0.028 c0.003-0.006,0.003-0.01,0.008-0.017c-0.006,0.009-0.007,0.013-0.01,0.019c-0.073,0.087-0.145,0.175-0.224,0.257 c-0.044,0.046-0.089,0.09-0.135,0.134c-0.012,0.012-0.049,0.044-0.083,0.074c-0.018,0.014-0.034,0.026-0.042,0.032 c-0.049,0.035-0.098,0.069-0.148,0.102c-0.1,0.065-0.204,0.126-0.31,0.182c-0.017,0.009-0.069,0.033-0.099,0.048 c-0.109,0.043-0.221,0.081-0.333,0.115c-0.11,0.033-0.224,0.053-0.334,0.083c-0.035,0.004-0.07,0.009-0.105,0.012 c-0.255,0.023-0.508,0.018-0.762-0.006c-0.316-0.03-0.725,0.195-0.933,0.414c-0.225,0.237-0.39,0.621-0.367,0.953 c0.044,0.627,0.408,1.027,0.927,1.204c-0.267,0.593-0.129,1.484,0.541,1.768c1.471,0.624,3.068,0.752,4.614,0.315 c0.7-0.198,1.396-0.517,1.986-0.944c0.451-0.326,0.996-0.713,1.102-1.3c0.112-0.615-0.125-1.226-0.686-1.537 c-0.561-0.311-1.248-0.198-1.69,0.263c-0.106,0.111-0.185,0.242-0.245,0.383c-0.018,0.013-0.036,0.027-0.055,0.039 c-0.193,0.128-0.396,0.233-0.602,0.34c-0.031,0.013-0.062,0.026-0.093,0.038c-0.118,0.046-0.238,0.087-0.359,0.125 c-0.189,0.059-0.383,0.098-0.576,0.136c-0.318,0.04-0.638,0.051-0.957,0.038c0.767-0.337,1.457-0.846,1.957-1.493 c0.556-0.72,0.989-1.547,1.128-2.456c0.114-0.751,0.123-1.62-0.68-2.019c-0.004-0.002-0.008-0.002-0.011-0.004 c0.045-0.065,0.094-0.126,0.136-0.194C212.918,396.286,212.652,395.379,212.028,395.069z"/>
              </g>
            </g>
            <path d="M212.236,399.528c-0.175,0.189-0.353,0.376-0.538,0.556c-0.176,0.171-0.364,0.39-0.573,0.52 c0.304-0.189-0.053,0.037-0.114,0.082c-0.104,0.076-0.209,0.149-0.316,0.219c-0.108,0.07-0.217,0.137-0.329,0.2 c-0.072,0.04-0.224,0.09-0.292,0.15c-0.027,0.011-0.053,0.022-0.08,0.032c-0.101,0.039-0.204,0.074-0.308,0.106 c-0.104,0.032-0.208,0.06-0.314,0.084c-0.027,0.006-0.054,0.012-0.081,0.017c-0.088-0.005-0.202,0.024-0.284,0.028 c-0.107,0.005-0.214,0.006-0.322,0.002c-0.022-0.001-0.044-0.003-0.066-0.004c-0.098-0.019-0.196-0.037-0.294-0.061 c-0.677-0.167-1.475,0.265-1.617,0.972c-0.143,0.707,0.247,1.439,0.972,1.617c1.124,0.276,2.334,0.136,3.386-0.335 c1.21-0.541,2.208-1.382,3.103-2.349c0.474-0.513,0.501-1.408-0.047-1.886C213.583,399.011,212.742,398.981,212.236,399.528z"/>
            <path style="fill:#612410;" d="M211.084,397.031c-0.089,0.084-0.178,0.166-0.27,0.247c-0.046,0.04-0.092,0.08-0.138,0.119 c-0.111,0.092-0.093,0.078,0.053-0.041c-0.124,0.151-0.353,0.27-0.514,0.381c-0.389,0.268-0.798,0.507-1.222,0.714 c-0.041,0.02-0.082,0.04-0.124,0.06c-0.132,0.061-0.11,0.052,0.066-0.029c-0.079,0.067-0.242,0.102-0.338,0.14 c-0.213,0.083-0.429,0.159-0.647,0.227c-0.218,0.068-0.439,0.128-0.662,0.18c-0.119,0.027-0.238,0.053-0.358,0.076 c-0.06,0.012-0.12,0.022-0.18,0.033c0.012-0.002,0.018-0.003,0.028-0.005c-0.34,0.054-0.629,0.141-0.879,0.404 c-0.226,0.237-0.39,0.621-0.367,0.953c0.045,0.651,0.627,1.408,1.367,1.3c1.206-0.175,2.313-0.504,3.414-1.029 c0.998-0.476,1.901-1.133,2.704-1.89c0.509-0.48,0.476-1.43-0.047-1.886C212.401,396.487,211.627,396.518,211.084,397.031z"/>
            <g>
              <path d="M207.045,397.25c0.006,0.001,0.013,0.001,0.019,0.001C206.746,397.174,206.932,397.241,207.045,397.25z"/>
              <path d="M209.431,397.18c0.003-0.001,0.007-0.002,0.01-0.002c-0.044,0.006-0.078,0.012-0.095,0.016 c0.015-0.002,0.03-0.004,0.045-0.007C209.405,397.184,209.408,397.184,209.431,397.18z"/>
              <path d="M212.602,396.38c-0.339-0.069-0.623-0.008-0.929,0.121c0.006-0.004-0.009,0.001-0.071,0.027 c-0.062,0.025-0.122,0.052-0.184,0.077c-0.123,0.05-0.247,0.097-0.372,0.142c-0.263,0.094-0.529,0.178-0.799,0.25 c-0.266,0.071-0.535,0.131-0.806,0.181c0.023-0.003,0.047-0.007,0.068-0.008c-0.039,0.003-0.078,0.01-0.118,0.017 c-0.045,0.008-0.06,0.01-0.045,0.007c-0.012,0.002-0.023,0.003-0.035,0.005c-0.145,0.019-0.29,0.036-0.436,0.049 c-0.542,0.05-1.089,0.056-1.633,0.019c-0.06-0.004-0.12-0.009-0.179-0.014c0.009,0.002,0.009,0.002,0.019,0.005 c-0.126-0.031-0.266-0.035-0.395-0.055c-0.289-0.046-0.575-0.106-0.858-0.177c-0.677-0.168-1.475,0.266-1.618,0.972 c-0.143,0.709,0.248,1.437,0.973,1.617c1.244,0.309,2.56,0.419,3.837,0.293c1.395-0.138,2.691-0.51,3.96-1.097 c0.282-0.131,0.522-0.525,0.593-0.812c0.08-0.322,0.03-0.746-0.16-1.024C213.224,396.693,212.944,396.449,212.602,396.38z"/>
            </g>
            <path d="M209.509,393.231c-0.021,0.02-0.043,0.039-0.064,0.058c-0.071,0.024-0.192,0.147-0.246,0.184 c-0.158,0.107-0.322,0.206-0.489,0.297c-0.085,0.046-0.171,0.087-0.258,0.13c-0.032,0.013-0.064,0.027-0.096,0.04 c-0.191,0.077-0.384,0.146-0.58,0.208c-0.82,0.26-1.671,0.403-2.518,0.545c-0.077,0.013-0.155,0.043-0.232,0.085 c-0.19,0.063-0.376,0.172-0.546,0.351c-1.065,1.12,0.388,2.712,1.554,2.118c0.9-0.151,1.805-0.302,2.672-0.596 c1.019-0.345,1.942-0.853,2.737-1.58c0.517-0.473,0.47-1.435-0.047-1.886C210.82,392.681,210.06,392.727,209.509,393.231z"/>
          </g>
          <path d="M211.357,391.921c-0.479-1.096-1.555-1.837-2.628-2.279c-0.118-0.049-0.235-0.084-0.352-0.122 c0.074-0.306,0.07-0.625-0.026-0.931c-0.013-0.156-0.052-0.304-0.1-0.453c0.023-0.093,0.058-0.185,0.054-0.282 c-0.029-0.682-0.538-1.194-1.221-1.22c-0.105-0.004-0.21,0.019-0.315,0.028c-0.073-0.279-0.147-0.559-0.198-0.843 c-0.018-0.102-0.035-0.204-0.05-0.307c-0.004-0.027-0.008-0.054-0.012-0.081c-0.001-0.004,0-0.001-0.001-0.005 c-0.021-0.206-0.04-0.412-0.052-0.619c-0.037-0.637-0.535-1.25-1.22-1.22c-0.629,0.027-1.26,0.54-1.22,1.22 c0.06,1.033,0.255,2.046,0.56,3.025c-0.327,0.6-0.317,1.349-0.03,1.988c0.063,0.139,0.146,0.267,0.239,0.388 c-0.495,0.505-0.885,1.098-1.02,1.816c-0.144,0.769-0.005,1.434,0.306,2.139c0.053,0.12,0.111,0.239,0.166,0.358 c0.007,0.015,0.027,0.056,0.043,0.09c0.001,0.002,0.003,0.006,0.003,0.007c0.076,0.216,0.141,0.436,0.213,0.653 c0.184,0.548,0.423,1.123,0.878,1.505c0.627,0.526,1.374,0.677,2.17,0.545c0.569-0.094,1.117-0.349,1.629-0.607 c0.521-0.262,1.035-0.599,1.443-1.019c0.444-0.457,0.802-1.033,0.959-1.655C211.758,393.313,211.653,392.598,211.357,391.921z"/>
        </g>
        <g>
          <path style="fill:#612410;" d="M211.091,382.353c-1.613,1.778-4.34,2.783-6.736,3.013c-0.175,0.018-0.35,0.028-0.516,0.037 c-2.479,0.129-7.123-0.562-6.174-4.018c0.322-1.189,1.391-2.036,1.815-3.207c0.341-0.949,0.433-1.954,0.35-2.94 c-0.212-2.774-2.046-4.525-3.889-6.432c-1.944-2.018-3.833-4.479-3.732-7.427c0.065-1.917,0.922-3.511,2.092-4.93 c-0.442-0.101-0.876-0.23-1.281-0.461c-1.392-0.811-2.322-2.46-1.88-4.073c0.341-1.198,1.189-1.963,2.239-2.461 c-1.262-1.392-2.258-3.013-2.894-4.819c-0.534-1.502-0.82-3.133-0.617-4.737c0.194-1.567,1.06-2.903,2.258-3.935 c0.101-0.092,0.203-0.175,0.313-0.258c2.368-1.843,6.008-2.451,8.847-1.548c3.198,1.014,5.723,3.658,5.898,7.059 c0.074,1.548-0.341,3.05-0.802,4.515c-0.23,0.71-0.47,1.428-0.792,2.101c0.276,0.065,0.553,0.147,0.811,0.267 c1.465,0.71,2.037,2.424,1.677,3.926c-0.267,1.133-1.041,1.99-2,2.58c1.06,0.627,2,1.447,2.672,2.58 c1.788,2.995,1.06,6.681,0.304,9.897c-0.359,1.539-0.746,3.069-1.078,4.617c-0.286,1.327-0.341,2.414,0.452,3.575 c0.829,1.207,2.23,1.898,3.041,3.096C212.317,379.634,212.114,381.229,211.091,382.353z"/>
          <path style="fill:#A64720;" d="M208.049,382.399c-0.866,1.253-2.221,2.258-3.695,2.967c-0.175,0.018-0.35,0.028-0.516,0.037 c-2.479,0.129-7.123-0.562-6.174-4.018c0.322-1.189,1.391-2.036,1.815-3.207c0.341-0.949,0.433-1.954,0.35-2.94 c-0.212-2.774-2.046-4.525-3.889-6.432c-1.944-2.018-3.833-4.479-3.732-7.427c0.037-1.041,0.304-1.981,0.737-2.857 c0.35-0.737,0.811-1.428,1.355-2.073c-0.442-0.101-0.875-0.23-1.281-0.461c-0.083-0.046-0.166-0.101-0.249-0.157 c-1.253-0.857-2.046-2.405-1.631-3.916c0.166-0.581,0.452-1.06,0.829-1.456c0.387-0.424,0.866-0.746,1.41-1.005 c-0.507-0.553-0.958-1.143-1.373-1.769c-0.627-0.94-1.133-1.963-1.521-3.05c-0.534-1.502-0.82-3.133-0.617-4.737 c0.194-1.567,1.06-2.903,2.258-3.935c3.225,0.636,5.981,2.893,6.598,6.183c0.276,1.511,0.064,3.059-0.203,4.571v0.009 c-0.129,0.728-0.276,1.474-0.498,2.184c0.277,0.028,0.562,0.074,0.839,0.157c0.221,0.074,0.424,0.166,0.608,0.286 c1.143,0.673,1.705,2.064,1.576,3.382c-0.092,0.912-0.507,1.686-1.115,2.331c-0.166,0.175-0.341,0.341-0.535,0.498 c1.06,0.442,2.027,1.06,2.801,1.972c0.074,0.074,0.129,0.147,0.193,0.221c2.166,2.737,1.945,6.478,1.622,9.777 c-0.157,1.567-0.332,3.142-0.461,4.709c-0.111,1.364-0.018,2.442,0.931,3.483c0.977,1.087,2.451,1.594,3.419,2.672 C208.916,379.542,208.916,381.146,208.049,382.399z"/>
          <g>
            <path style="fill:#CC6F43;" d="M194.419,339.701c-0.224-0.489-0.586-0.994-1.126-1.117c-0.182-0.072-0.397-0.112-0.574-0.041 c-0.288,0.116-0.555,0.247-0.765,0.484c-0.228,0.257-0.369,0.517-0.486,0.838c-0.147,0.401-0.191,0.856-0.147,1.281 c0.053,0.499,0.186,0.98,0.445,1.415c0.282,0.476,0.712,0.974,1.269,1.115c0.425,0.108,0.86-0.02,1.181-0.309 c0.224-0.202,0.355-0.465,0.454-0.744c0.151-0.426,0.188-0.927,0.153-1.376C194.778,340.699,194.648,340.2,194.419,339.701z"/>
            <path style="fill:#CC6F43;" d="M193.605,341.924c-0.005-0.002-0.006-0.003-0.013-0.006c0.006,0.006,0.009,0.01,0.014,0.016 c0.003,0.001,0.007,0.003,0.009,0.004C193.61,341.934,193.609,341.928,193.605,341.924z"/>
          </g>
          <path style="fill:#CC6F43;" d="M197.873,351.949c-0.508-0.856-1.545-0.951-2.443-0.906c-0.99,0.05-1.925,0.289-2.833,0.681 c-0.382,0.165-0.527,0.68-0.408,1.072c-0.217,0.461-0.064,0.944,0.357,1.224c1.286,0.855,2.99,0.906,4.367,0.248 c0.376-0.18,0.773-0.44,0.982-0.813C198.156,352.985,198.148,352.413,197.873,351.949z"/>
          <path style="fill:#CC6F43;" d="M196.767,361.295c-0.268-0.368-0.531-0.722-0.907-0.985c-0.441-0.308-1.039-0.391-1.52-0.119 c-0.283,0.16-0.455,0.385-0.556,0.637c-0.067,0.127-0.117,0.265-0.131,0.423c-0.197,2.279,1.359,4.454,3.488,5.176 c0.532,0.18,1.205-0.323,1.155-0.892C198.164,364.019,197.667,362.532,196.767,361.295z"/>
          <path style="fill:#CC6F43;" d="M202.267,379.38c-0.362-0.353-0.892-0.483-1.38-0.366c-0.246,0.059-0.463,0.187-0.66,0.341 c-0.065,0.038-0.131,0.07-0.192,0.123c-0.247,0.211-0.455,0.471-0.63,0.744c-0.161,0.249-0.297,0.543-0.37,0.829 c-0.101,0.394-0.075,0.806,0.107,1.172c0.257,0.517,0.85,0.732,1.393,0.62c0.379-0.078,0.721-0.342,1.011-0.584 c0.234-0.196,0.423-0.434,0.6-0.681c0.183-0.254,0.309-0.539,0.416-0.832C202.733,380.277,202.626,379.731,202.267,379.38z"/>
          <path style="fill:#612410;" d="M206.455,356.855c-1.41,0.249-2.829,0.479-4.257,0.682c-3.013,0.442-6.045,0.774-9.086,0.995 c-0.055,0-0.111,0-0.166-0.009c0.35-0.737,0.811-1.428,1.355-2.073c-0.442-0.101-0.875-0.23-1.281-0.461 c-0.083-0.046-0.166-0.101-0.249-0.157c0.111-0.037,0.221-0.055,0.341-0.064c2.276-0.166,4.552-0.406,6.819-0.7 c1.944-0.249,3.889-0.553,5.824-0.894c0.737-0.129,1.484,0.221,1.686,0.986C207.616,355.841,207.192,356.716,206.455,356.855z"/>
          <path style="fill:#612410;" d="M201.949,348.911c-0.829,0.157-1.649,0.304-2.479,0.442c-2.488,0.424-4.995,0.792-7.501,1.106 c0.387-0.424,0.866-0.746,1.41-1.005c-0.507-0.553-0.958-1.143-1.373-1.769c2.184-0.276,4.35-0.599,6.515-0.967 c0.912-0.148,1.825-0.313,2.728-0.479c0.737-0.138,1.493,0.221,1.686,0.986C203.119,347.907,202.686,348.773,201.949,348.911z"/>
        </g>
        <g>
          <path style="fill:#A64720;" d="M209.651,351.256c-2.956,0.376-6.302-1.119-7.978-3.929c-1.792-3.004-1.406-6.9,0.226-9.701 c3.018-5.179,11.439-6.561,15.107-0.094C220.276,343.297,214.863,350.592,209.651,351.256z"/>
          <path style="fill:#612410;" d="M210.1,333.202c2.645,0.106,5.26,1.429,6.905,4.334c3.272,5.758-2.136,13.058-7.352,13.719 c-0.805,0.102-1.633,0.069-2.455-0.1c1.139-0.324,2.212-0.832,3.178-1.584c3.023-2.344,4.511-6.758,3.41-10.822 C213.191,336.568,211.835,334.591,210.1,333.202z"/>
          <path style="fill:#CC6F43;" d="M205.308,338.414c3.511,0.241,3.569,6.931-0.07,6.987 C201.232,345.462,202.109,338.194,205.308,338.414z"/>
        </g>
        <g>
          <path style="fill:#A64720;" d="M220.782,342.547c-2.946-0.452-5.751-2.809-6.589-5.973c-0.896-3.381,0.547-7.021,2.886-9.264 c4.327-4.149,12.802-3.16,14.55,4.066C233.187,337.819,225.976,343.343,220.782,342.547z"/>
          <path style="fill:#612410;" d="M226.181,325.313c2.514,0.83,4.664,2.821,5.446,6.067c1.561,6.436-5.646,11.967-10.843,11.166 c-0.802-0.124-1.589-0.383-2.333-0.772c1.184,0.002,2.355-0.191,3.491-0.649c3.551-1.421,6.196-5.256,6.256-9.466 C228.227,329.4,227.467,327.126,226.181,325.313z"/>
          <path style="fill:#CC6F43;" d="M220.14,329.005c3.309,1.198,1.525,7.645-1.99,6.698 C214.282,334.66,217.125,327.914,220.14,329.005z"/>
        </g>
        <g>
          <path style="fill:#A64720;" d="M233.488,337.97c-2.944-1.432-5.077-4.612-4.859-7.879c0.233-3.492,3.018-6.428,6.261-7.743 c5.998-2.431,14.576,1.397,13.902,8.803C248.191,337.754,238.678,340.495,233.488,337.97z"/>
          <path style="fill:#612410;" d="M245.166,323.577c2.358,1.641,3.929,4.251,3.623,7.577c-0.595,6.598-10.107,9.345-15.299,6.815 c-0.802-0.391-1.54-0.903-2.188-1.524c1.246,0.406,2.546,0.625,3.901,0.582c4.233-0.126,8.351-2.835,9.879-6.781 C245.899,328.127,245.89,325.725,245.166,323.577z"/>
          <path style="fill:#CC6F43;" d="M237.522,324.992c3.066,2.259-1.054,7.724-4.424,5.63 C229.389,328.318,234.728,322.933,237.522,324.992z"/>
        </g>
        <g>
          <path style="fill:#A64720;" d="M309.021,335.253c-3.014-1.277-5.31-4.342-5.263-7.615c0.051-3.499,2.679-6.577,5.85-8.058 c5.863-2.74,14.629,0.636,14.341,8.067C323.693,334.272,314.336,337.504,309.021,335.253z"/>
          <path style="fill:#612410;" d="M319.934,320.272c2.44,1.516,4.145,4.041,4.012,7.378c-0.251,6.62-9.606,9.859-14.923,7.603 c-0.821-0.349-1.584-0.822-2.264-1.408c1.265,0.341,2.575,0.492,3.926,0.378c4.22-0.346,8.192-3.266,9.512-7.286 C320.903,324.778,320.769,322.379,319.934,320.272z"/>
          <path style="fill:#CC6F43;" d="M312.374,322.083c3.18,2.097-0.651,7.768-4.125,5.853 C304.426,325.828,309.477,320.172,312.374,322.083z"/>
        </g>
        <g>
          <path style="fill:#A64720;" d="M289.417,335.993c-2.763-1.756-4.523-5.156-3.938-8.377c0.626-3.443,3.724-6.046,7.096-6.986 c6.234-1.738,14.325,3.035,12.819,10.317C304.051,337.44,294.289,339.089,289.417,335.993z"/>
          <path style="fill:#612410;" d="M302.646,323.012c2.157,1.897,3.423,4.668,2.743,7.938c-1.337,6.488-11.097,8.144-15.971,5.044 c-0.752-0.479-1.428-1.072-2.002-1.762c1.192,0.545,2.459,0.909,3.81,1.019c4.22,0.353,8.618-1.874,10.582-5.622 C302.861,327.616,303.123,325.228,302.646,323.012z"/>
          <path style="fill:#CC6F43;" d="M294.892,323.554c2.791,2.591-1.92,7.556-5.032,5.095 C286.435,325.941,292.348,321.193,294.892,323.554z"/>
        </g>
        <g>
          <path style="fill:#A64720;" d="M268.931,335.669c-2.242-2.385-3.105-6.116-1.74-9.092c1.459-3.181,5.106-4.935,8.605-5.011 c6.47-0.139,13.127,6.488,9.864,13.171C282.75,340.695,272.884,339.874,268.931,335.669z"/>
          <path style="fill:#612410;" d="M284.963,326.369c1.62,2.372,2.16,5.371,0.692,8.37c-2.902,5.955-12.769,5.141-16.722,0.931 c-0.61-0.65-1.118-1.392-1.503-2.202c1.02,0.823,2.157,1.49,3.439,1.931c4.001,1.387,8.814,0.319,11.644-2.826 C284.03,330.882,284.875,328.634,284.963,326.369z"/>
          <path style="fill:#CC6F43;" d="M277.315,324.973c2.063,3.202-3.732,6.845-6.137,3.689 C268.531,325.191,275.436,322.056,277.315,324.973z"/>
        </g>
        <g>
          <path style="fill:#A64720;" d="M251.68,336.071c-2.871-1.573-4.847-4.853-4.471-8.105c0.402-3.477,3.326-6.274,6.629-7.43 c6.109-2.137,14.491,2.103,13.458,9.467C266.376,336.569,256.741,338.845,251.68,336.071z"/>
          <path style="fill:#612410;" d="M264.042,322.263c2.275,1.754,3.718,4.437,3.251,7.744c-0.915,6.561-10.548,8.844-15.611,6.065 c-0.782-0.429-1.494-0.977-2.111-1.629c1.225,0.466,2.512,0.748,3.868,0.77c4.234,0.08,8.479-2.427,10.196-6.294 C264.553,326.843,264.661,324.443,264.042,322.263z"/>
          <path style="fill:#CC6F43;" d="M256.339,323.305c2.953,2.405-1.428,7.664-4.692,5.409 C248.054,326.233,253.648,321.113,256.339,323.305z"/>
        </g>
      </g>
    </g>
    <g>
      <path style="fill:#FFFFFF;" d="M418.991,208.526c-1.909-0.918-3.394-2.577-4.388-4.447c-0.994-1.87-1.531-3.95-1.898-6.036 c-0.276-1.565-0.581-3.289-0.674-4.875c-0.245,3.163-0.933,6.342-2.49,9.106c-1.557,2.764-4.055,5.085-7.099,5.978 c2.792,1.314,4.857,4.011,6.181,6.798c1.324,2.787,1.899,5.875,2.165,8.949c0.525-2.972,1.222-5.956,2.45-8.713 C414.466,212.529,416.405,210.082,418.991,208.526z"/>
      <path style="fill:#FFFFFF;" d="M344.464,355.793c-1.909-0.918-3.394-2.577-4.388-4.447c-0.994-1.87-1.531-3.95-1.898-6.036 c-0.275-1.565-0.581-3.289-0.674-4.875c-0.245,3.163-0.934,6.342-2.49,9.106c-1.557,2.764-4.055,5.086-7.099,5.978 c2.792,1.314,4.857,4.011,6.181,6.798c1.324,2.787,1.899,5.875,2.165,8.949c0.525-2.972,1.222-5.956,2.45-8.713 C339.939,359.796,341.878,357.349,344.464,355.793z"/>
      <path style="fill:#FFFFFF;" d="M130.105,194.816c-2.56-1.231-4.553-3.457-5.886-5.965c-1.333-2.509-2.053-5.299-2.546-8.097 c-0.369-2.099-0.779-4.412-0.904-6.54c-0.328,4.242-1.252,8.508-3.34,12.215c-2.088,3.708-5.439,6.822-9.523,8.02 c3.745,1.763,6.515,5.38,8.292,9.119c1.777,3.739,2.548,7.881,2.904,12.004c0.704-3.987,1.64-7.99,3.286-11.688 C124.036,200.185,126.637,196.903,130.105,194.816z"/>
      <path style="fill:#FFFFFF;" d="M101.325,164.314c-4.511,0-4.513,7,0,7C105.835,171.314,105.837,164.314,101.325,164.314z"/>
      <path style="fill:#FFFFFF;" d="M380.194,311.531c-3.222,0-3.223,5,0,5C383.416,316.531,383.417,311.531,380.194,311.531z"/>
      <path style="fill:#FFFFFF;" d="M153.964,112.667c-3.222,0-3.223,5,0,5C157.186,117.667,157.188,112.667,153.964,112.667z"/>
      <path style="fill:#FFFFFF;" d="M269.084,418.122c-3.222,0-3.223,5,0,5C272.306,423.122,272.307,418.122,269.084,418.122z"/>
      <path style="fill:#FFFFFF;" d="M393.159,167.782c-0.139-0.523-0.399-0.976-0.781-1.36c-0.2-0.2-0.399-0.399-0.599-0.599 c-0.281-0.303-0.614-0.515-1-0.635c-0.349-0.177-0.722-0.259-1.121-0.244c-0.399-0.015-0.773,0.067-1.121,0.244 c-0.386,0.12-0.719,0.331-1,0.635c-0.163,0.213-0.325,0.426-0.488,0.64c-0.259,0.46-0.389,0.954-0.391,1.481 c0.033,0.254,0.065,0.507,0.098,0.761c0.139,0.523,0.399,0.976,0.781,1.36c0.2,0.2,0.399,0.399,0.599,0.599 c0.281,0.303,0.614,0.515,1,0.635c0.349,0.178,0.722,0.259,1.121,0.244c0.399,0.015,0.773-0.067,1.121-0.244 c0.386-0.12,0.719-0.331,1-0.635c0.163-0.213,0.325-0.426,0.488-0.64c0.259-0.46,0.389-0.954,0.391-1.482L393.159,167.782z"/>
      <path style="fill:#FFFFFF;" d="M111.109,261.033c-0.139-0.523-0.399-0.976-0.781-1.36c-0.2-0.2-0.399-0.399-0.599-0.599 c-0.281-0.303-0.614-0.515-1-0.635c-0.349-0.177-0.722-0.259-1.121-0.244c-0.399-0.015-0.773,0.067-1.121,0.244 c-0.386,0.12-0.719,0.332-1,0.635c-0.163,0.213-0.326,0.426-0.488,0.64c-0.259,0.46-0.389,0.954-0.391,1.482 c0.033,0.254,0.065,0.507,0.098,0.761c0.139,0.523,0.399,0.976,0.781,1.36c0.2,0.2,0.399,0.399,0.599,0.599 c0.281,0.303,0.614,0.515,1,0.635c0.348,0.177,0.722,0.259,1.121,0.244c0.399,0.015,0.773-0.067,1.121-0.244 c0.386-0.12,0.719-0.332,1-0.635c0.163-0.213,0.325-0.426,0.488-0.64c0.259-0.46,0.389-0.954,0.391-1.482L111.109,261.033z"/>
    </g>
  </g>
</svg>